<?xml version="1.0" encoding="utf-8"?>
<!-- Generator: Adobe Illustrator 25.4.1, SVG Export Plug-In . SVG Version: 6.00 Build 0)  -->
<svg version="1.1" id="Layer_1" xmlns="http://www.w3.org/2000/svg" xmlns:xlink="http://www.w3.org/1999/xlink" x="0px" y="0px"
	 viewBox="0 0 252.89 107" style="enable-background:new 0 0 252.89 107;" xml:space="preserve">
<style type="text/css">
	.st0{fill:none;stroke:#E7B242;stroke-miterlimit:10;}
	.st1{fill:#A43C63;}
	.st2{fill:#F7E939;}
	.st3{fill:#FFFFFF;}
</style>
<polyline class="st0" points="202.02,37.28 134.06,37.28 116.92,54.06 99.78,37.28 31.82,37.28 "/>
<g>
	<polygon class="st1" points="111.42,84.3 116.81,73.13 122.39,84.2 134.68,85.88 125.87,94.61 128.07,106.81 117.05,101.14 
		106.13,107 108.12,94.76 99.17,86.19 	"/>
	<polygon class="st1" points="68.42,84.3 73.81,73.13 79.4,84.2 91.68,85.88 82.88,94.61 85.08,106.81 74.06,101.14 63.13,107 
		65.12,94.76 56.17,86.19 	"/>
	<polygon class="st1" points="25.43,84.3 30.82,73.13 36.4,84.2 48.69,85.88 39.88,94.61 42.08,106.81 31.06,101.14 20.14,107 
		22.13,94.76 13.18,86.19 	"/>
	<polygon class="st2" points="111.42,82.87 116.81,71.7 122.39,82.77 134.68,84.45 125.87,93.18 128.07,105.38 117.05,99.7 
		106.13,105.57 108.12,93.33 99.17,84.75 	"/>
	<polygon class="st1" points="154.41,82.87 159.8,71.7 165.39,82.77 177.67,84.45 168.87,93.18 171.07,105.38 160.05,99.7 
		149.12,105.57 151.11,93.33 142.16,84.75 	"/>
	<polygon class="st1" points="197.41,82.87 202.8,71.7 208.38,82.77 220.67,84.45 211.86,93.18 214.06,105.38 203.04,99.7 
		192.12,105.57 194.11,93.33 185.16,84.75 	"/>
	<polygon class="st2" points="68.42,82.87 73.81,71.7 79.4,82.77 91.68,84.45 82.88,93.18 85.08,105.38 74.06,99.7 63.13,105.57 
		65.12,93.33 56.17,84.75 	"/>
	<polygon class="st2" points="25.43,82.87 30.82,71.7 36.4,82.77 48.69,84.45 39.88,93.18 42.08,105.38 31.06,99.7 20.14,105.57 
		22.13,93.33 13.18,84.75 	"/>
	<polygon class="st2" points="154.31,81.43 159.7,70.27 165.28,81.34 177.57,83.01 168.76,91.74 170.97,103.94 159.94,98.27 
		149.02,104.13 151.01,91.9 142.06,83.32 	"/>
	<polygon class="st2" points="197.41,81.43 202.8,70.27 208.38,81.34 220.67,83.01 211.86,91.74 214.06,103.94 203.04,98.27 
		192.12,104.13 194.11,91.9 185.16,83.32 	"/>
</g>
<g>
	<path class="st3" d="M19.69,2.52c1.33,0.48,2.36,1.15,3.1,1.99c0.74,0.84,1.11,1.77,1.11,2.8c0,1.11-0.4,2.02-1.19,2.73
		c-0.8,0.72-1.87,1.08-3.23,1.08c-1.39,0-2.47-0.34-3.25-1.02c-0.78-0.68-1.17-1.6-1.17-2.75c0-0.55,0.09-1.13,0.26-1.74
		c-1.21,0.3-2.29,0.9-3.23,1.8c-0.94,0.9-1.57,2.08-1.89,3.54c-0.17,0.83-0.26,1.57-0.26,2.24c0,1.49,0.43,2.62,1.3,3.4
		c0.87,0.77,2.11,1.16,3.73,1.16c0.92,0,1.72-0.09,2.39-0.27c0.67-0.18,1.34-0.42,2.04-0.72c0.58-0.28,1-0.41,1.26-0.41
		c0.17,0,0.29,0.04,0.35,0.1c0.06,0.07,0.09,0.21,0.09,0.43c0.03,1.02-0.41,2.09-1.32,3.21c-0.91,1.12-2.17,2.06-3.77,2.82
		c-1.6,0.76-3.4,1.14-5.4,1.14c-2.08,0-3.93-0.37-5.53-1.1c-1.6-0.73-2.85-1.78-3.73-3.15C0.44,18.43,0,16.83,0,15.01
		c0-0.86,0.12-1.81,0.35-2.86c0.78-3.42,2.51-6.01,5.18-7.75c2.67-1.74,5.85-2.61,9.52-2.61C16.81,1.79,18.36,2.04,19.69,2.52z"/>
	<path class="st3" d="M41.56,8.3c1.49,1.21,2.23,2.79,2.23,4.75c0,0.66-0.09,1.4-0.28,2.21c-0.44,1.8-1.26,3.38-2.45,4.73
		c-1.2,1.35-2.67,2.4-4.4,3.13c-1.74,0.74-3.62,1.11-5.65,1.11c-3.2,0-5.57-0.61-7.1-1.83c-1.53-1.22-2.3-2.84-2.3-4.87
		c0-0.68,0.09-1.44,0.28-2.28c0.44-1.72,1.27-3.24,2.5-4.57c1.23-1.33,2.74-2.36,4.53-3.1c1.78-0.74,3.69-1.11,5.72-1.11
		C37.77,6.49,40.08,7.09,41.56,8.3z M33,10.66c-0.54,0.83-1.18,2.38-1.92,4.67c-0.74,2.29-1.11,3.89-1.11,4.82
		c0,0.48,0.08,0.81,0.24,0.97c0.16,0.17,0.38,0.25,0.66,0.25c0.48,0.04,0.98-0.35,1.5-1.19c0.52-0.84,1.17-2.46,1.95-4.88
		c0.71-2.13,1.07-3.68,1.07-4.65c0-0.46-0.08-0.78-0.22-0.96c-0.15-0.18-0.36-0.26-0.64-0.26C34.05,9.42,33.54,9.84,33,10.66z"/>
	<path class="st3" d="M72.07,3.14c0.69,0.67,1.04,1.5,1.04,2.49c0,0.37-0.04,0.72-0.12,1.04c-0.21,0.81-0.6,1.43-1.18,1.86
		c-0.58,0.43-1.27,0.65-2.08,0.65c-0.78,0-1.38-0.18-1.78-0.53c-0.4-0.36-0.76-0.83-1.07-1.42c-0.17-0.34-0.8-0.66-0.99-0.74
		c-2.45-1.04-11.53,4.28-11.64,4.34c-0.17,0.1-0.34,0.25-0.49,0.41c-0.15,0.16-0.29,0.43-0.42,0.83l-2.39,7.4
		c-0.04,0.1-0.06,0.25-0.06,0.44c0,0.26,0.08,0.47,0.23,0.64c0.15,0.17,0.37,0.33,0.63,0.49c0.25,0.16,0.41,0.29,0.5,0.38
		c0.08,0.1,0.11,0.23,0.09,0.38c-0.04,0.26-0.19,0.44-0.45,0.56c-0.26,0.12-0.7,0.18-1.32,0.18h-7.93c-0.54,0-0.92-0.08-1.16-0.25
		c-0.24-0.17-0.33-0.39-0.26-0.67c0.08-0.24,0.3-0.44,0.65-0.62c0.31-0.16,0.57-0.35,0.77-0.56c0.21-0.22,0.38-0.56,0.53-1.04
		l2.76-8.55c0.04-0.1,0.06-0.24,0.06-0.41c0-0.22-0.05-0.38-0.14-0.5c-0.09-0.12-0.24-0.27-0.45-0.44c-0.21-0.16-0.35-0.3-0.43-0.41
		c-0.08-0.12-0.09-0.28-0.03-0.47c0.12-0.45,0.77-0.85,1.95-1.2c1.18-0.35,2.41-0.52,3.69-0.52c0.85,0,1.55,0.18,2.11,0.55
		c0.56,0.37,0.92,0.88,1.08,1.55c0.76-2.1,13.91-6.85,15.52-6.85C70.45,2.14,71.38,2.47,72.07,3.14z"/>
	<path class="st3" d="M68.2,11.24c1.03,0.7,1.54,1.58,1.54,2.67c0,0.33-0.04,0.63-0.11,0.9c-0.27,1.13-1.02,1.95-2.25,2.44
		c-1.23,0.49-2.69,0.73-4.36,0.73c-0.85,0-1.64-0.05-2.37-0.15c-0.02,0.89,0.23,1.52,0.76,1.88c0.52,0.36,1.25,0.54,2.19,0.54
		c0.43,0,0.85-0.05,1.24-0.14c0.4-0.09,0.9-0.24,1.51-0.42c0.5-0.17,0.85-0.26,1.03-0.26c0.2,0,0.3,0.11,0.3,0.34
		c0.02,0.6-0.22,1.23-0.7,1.89c-0.49,0.66-1.21,1.22-2.16,1.69c-0.95,0.46-2.1,0.7-3.45,0.7c-2,0-3.63-0.48-4.91-1.44
		c-1.28-0.96-1.92-2.36-1.92-4.2c0-0.52,0.07-1.12,0.22-1.8c0.45-2.11,1.43-3.71,2.95-4.78c1.52-1.07,3.37-1.61,5.55-1.61
		C65.52,10.2,67.18,10.55,68.2,11.24z M61.13,16.31c0.76,0,1.33-0.34,1.73-1c0.4-0.67,0.58-1.42,0.57-2.24
		c-0.02-0.48-0.16-0.72-0.43-0.72c-0.2,0-0.43,0.15-0.7,0.45c-0.27,0.3-0.54,0.75-0.8,1.35c-0.26,0.6-0.48,1.31-0.66,2.14
		C60.91,16.3,61.01,16.31,61.13,16.31z"/>
	<path class="st3" d="M88.06,20.47C88.02,20.55,88,20.66,88,20.8c0,0.13,0.03,0.23,0.1,0.3c0.07,0.07,0.16,0.11,0.27,0.11
		c0.23,0,0.43-0.1,0.59-0.29c0.16-0.19,0.27-0.29,0.33-0.29c0.1,0,0.17,0.06,0.23,0.18c0.06,0.12,0.09,0.26,0.09,0.43
		c0.02,0.53-0.16,1.05-0.55,1.55c-0.38,0.5-0.95,0.92-1.68,1.24c-0.74,0.32-1.63,0.48-2.66,0.48c-1.27,0-2.27-0.28-3.02-0.84
		c-0.75-0.56-1.13-1.31-1.15-2.24c0-0.68,0.17-1.44,0.52-2.28l1.58-3.96c0.1-0.24,0.14-0.43,0.14-0.58c0-0.24-0.08-0.43-0.24-0.56
		c-0.16-0.14-0.36-0.21-0.59-0.21c-0.42,0-0.83,0.19-1.21,0.56c-0.38,0.38-0.66,0.84-0.83,1.39l-1.78,5.61
		c-0.08,0.2-0.12,0.39-0.12,0.58c0,0.22,0.05,0.4,0.14,0.54c0.1,0.14,0.23,0.28,0.4,0.43c0.13,0.11,0.23,0.21,0.29,0.3
		c0.06,0.09,0.07,0.2,0.03,0.33c-0.08,0.24-0.26,0.41-0.55,0.52c-0.29,0.11-0.74,0.16-1.35,0.16h-6.56c-0.5,0-0.86-0.08-1.08-0.23
		c-0.22-0.16-0.3-0.36-0.24-0.62c0.08-0.22,0.28-0.41,0.6-0.58c0.29-0.15,0.53-0.32,0.72-0.52c0.19-0.2,0.36-0.52,0.49-0.96
		l2.56-7.94c0.04-0.09,0.06-0.22,0.06-0.39c0-0.2-0.04-0.36-0.13-0.47c-0.09-0.11-0.23-0.25-0.42-0.41
		c-0.19-0.15-0.33-0.28-0.4-0.39c-0.08-0.11-0.09-0.26-0.03-0.44c0.12-0.42,0.72-0.79,1.81-1.11c1.09-0.32,2.23-0.48,3.42-0.48
		c0.96,0,1.72,0.25,2.27,0.76c0.56,0.5,0.81,1.21,0.75,2.1c0.79-1.08,1.62-1.83,2.5-2.24c0.88-0.41,1.84-0.62,2.88-0.62
		c1.17,0,2.12,0.34,2.84,1.02c0.72,0.68,1.08,1.56,1.08,2.64c0,0.57-0.1,1.13-0.29,1.68L88.06,20.47z"/>
	<path class="st3" d="M111.16,7.02c0.66,0.35,1.17,0.8,1.56,1.35c0.38,0.55,0.57,1.12,0.57,1.72c0,0.84-0.24,1.56-0.73,2.16
		c-0.48,0.61-1.26,1.2-2.31,1.8l-7.32,4.16c0.69,0.75,1.37,1.12,2.04,1.12c0.53,0,1-0.19,1.42-0.56c0.41-0.37,0.89-0.91,1.42-1.62
		c0.32-0.42,0.56-0.71,0.73-0.89c0.16-0.18,0.32-0.26,0.48-0.26c0.41,0,0.87,0.14,1.36,0.43c0.5,0.29,0.92,0.7,1.28,1.25
		s0.54,1.21,0.54,1.98c0,0.79-0.21,1.52-0.64,2.19c-0.43,0.67-1.02,1.2-1.8,1.6c-0.77,0.4-1.68,0.59-2.71,0.59
		c-1.01,0-1.87-0.17-2.56-0.51c-0.69-0.34-1.23-0.72-1.61-1.14c-0.38-0.42-0.75-0.91-1.12-1.48c-0.3-0.51-0.53-0.76-0.69-0.76
		c-0.14,0-0.28,0.08-0.43,0.23c-0.15,0.15-0.36,0.42-0.64,0.79c-0.62,0.86-1.26,1.55-1.92,2.08c-0.66,0.53-1.51,0.79-2.57,0.79
		c-1.01,0-1.93-0.18-2.75-0.53c-0.82-0.35-1.46-0.82-1.93-1.4c-0.47-0.58-0.71-1.22-0.71-1.9c0-1.21,0.84-2.32,2.52-3.33l8.88-5.18
		c-0.39-0.46-0.74-0.79-1.04-0.99c-0.3-0.2-0.62-0.3-0.97-0.3c-0.44,0-0.81,0.15-1.12,0.45c-0.31,0.3-0.63,0.71-0.95,1.24
		c-0.23,0.35-0.42,0.62-0.57,0.79c-0.15,0.18-0.32,0.26-0.5,0.26c-0.71,0-1.34-0.24-1.87-0.73c-0.53-0.48-0.79-1.14-0.79-1.98
		c0-0.68,0.18-1.32,0.54-1.93c0.36-0.6,0.86-1.09,1.52-1.47c0.66-0.37,1.42-0.56,2.3-0.56c1.27,0,2.25,0.29,2.95,0.87
		c0.7,0.58,1.33,1.3,1.88,2.16c0.32,0.48,0.54,0.73,0.66,0.73s0.25-0.07,0.4-0.21c0.15-0.14,0.28-0.29,0.38-0.43
		c0.1-0.14,0.19-0.25,0.26-0.31c0.69-0.86,1.36-1.54,2-2.05c0.64-0.51,1.46-0.76,2.45-0.76C109.8,6.49,110.51,6.66,111.16,7.02z"/>
	<path class="st3" d="M129.64,9.21c1.26,1.03,1.89,2.37,1.89,4.03c0,0.56-0.08,1.19-0.23,1.88c-0.37,1.53-1.07,2.87-2.08,4.02
		c-1.02,1.15-2.26,2.04-3.74,2.66c-1.48,0.63-3.08,0.94-4.8,0.94c-2.72,0-4.73-0.52-6.03-1.55c-1.3-1.04-1.95-2.41-1.95-4.13
		c0-0.58,0.08-1.22,0.23-1.93c0.37-1.46,1.08-2.75,2.13-3.88c1.05-1.13,2.33-2.01,3.84-2.63c1.52-0.63,3.13-0.94,4.85-0.94
		C126.41,7.67,128.37,8.18,129.64,9.21z M122.36,11.21c-0.46,0.7-1,2.02-1.63,3.96c-0.63,1.94-0.94,3.31-0.94,4.09
		c0,0.41,0.07,0.69,0.21,0.83c0.14,0.14,0.32,0.21,0.56,0.21c0.41,0.04,0.84-0.3,1.28-1.01c0.44-0.71,0.99-2.09,1.66-4.15
		c0.61-1.81,0.91-3.13,0.91-3.95c0-0.39-0.06-0.66-0.19-0.81c-0.13-0.15-0.31-0.22-0.54-0.22
		C123.26,10.16,122.82,10.51,122.36,11.21z"/>
	<path class="st3" d="M154.62,19.83c-0.05,0.09-0.07,0.22-0.07,0.4c0,0.15,0.04,0.28,0.12,0.36c0.08,0.09,0.19,0.13,0.33,0.13
		c0.28,0,0.51-0.12,0.71-0.35c0.2-0.23,0.33-0.35,0.4-0.35c0.12,0,0.21,0.07,0.28,0.21c0.07,0.14,0.1,0.31,0.1,0.51
		c0.02,0.64-0.2,1.26-0.66,1.86c-0.46,0.61-1.13,1.1-2.02,1.48c-0.89,0.38-1.95,0.58-3.2,0.58c-1.52,0-2.73-0.33-3.63-1.01
		c-0.9-0.67-1.36-1.57-1.38-2.69c0-0.81,0.21-1.73,0.62-2.74l1.9-4.75c0.12-0.29,0.17-0.52,0.17-0.69c0-0.29-0.1-0.51-0.29-0.68
		c-0.2-0.17-0.43-0.25-0.71-0.25c-0.44,0-0.88,0.19-1.33,0.58c-0.45,0.38-0.81,1.01-1.09,1.86v-0.07l-2.18,6.7
		c-0.07,0.26-0.1,0.5-0.1,0.69c0,0.29,0.06,0.51,0.17,0.68s0.28,0.32,0.48,0.48c0.16,0.15,0.28,0.28,0.35,0.38
		c0.07,0.1,0.08,0.23,0.03,0.38c-0.12,0.29-0.35,0.49-0.69,0.63c-0.35,0.13-0.88,0.2-1.59,0.2h-7.88c-0.6,0-1.04-0.09-1.31-0.28
		c-0.28-0.19-0.37-0.43-0.28-0.74c0.09-0.26,0.33-0.5,0.73-0.69c0.35-0.18,0.63-0.38,0.86-0.63s0.43-0.63,0.59-1.15l5.25-16.46
		c0.07-0.2,0.1-0.36,0.1-0.5c0-0.24-0.06-0.44-0.19-0.59c-0.13-0.15-0.29-0.31-0.5-0.46c-0.23-0.18-0.4-0.33-0.5-0.46
		c-0.1-0.13-0.12-0.31-0.05-0.53c0.14-0.51,0.86-0.95,2.18-1.32c1.31-0.37,2.68-0.56,4.11-0.56c1.34,0,2.32,0.24,2.95,0.73
		c0.63,0.48,0.95,1.14,0.95,1.98c0,0.48-0.08,0.96-0.24,1.42l-1.87,5.81c0.9-1.12,1.85-1.9,2.85-2.34c1-0.44,2.09-0.66,3.26-0.66
		c1.4,0,2.54,0.41,3.4,1.22c0.86,0.81,1.3,1.87,1.3,3.17c0,0.68-0.12,1.35-0.35,2.01L154.62,19.83z"/>
	<path class="st3" d="M178.27,8.74c1.49,1.21,2.23,2.79,2.23,4.75c0,0.66-0.09,1.4-0.28,2.21c-0.44,1.8-1.26,3.38-2.45,4.73
		c-1.2,1.35-2.67,2.4-4.4,3.13c-1.74,0.74-3.62,1.11-5.65,1.11c-3.2,0-5.57-0.61-7.1-1.83c-1.53-1.22-2.3-2.84-2.3-4.87
		c0-0.68,0.09-1.44,0.28-2.28c0.44-1.72,1.27-3.24,2.5-4.57c1.23-1.33,2.74-2.36,4.53-3.1c1.78-0.74,3.69-1.11,5.72-1.11
		C174.47,6.93,176.78,7.53,178.27,8.74z M169.7,11.1c-0.54,0.83-1.18,2.38-1.92,4.67c-0.74,2.29-1.11,3.89-1.11,4.82
		c0,0.48,0.08,0.81,0.24,0.97c0.16,0.17,0.38,0.25,0.66,0.25c0.48,0.04,0.98-0.35,1.5-1.19c0.52-0.84,1.17-2.46,1.95-4.88
		c0.71-2.13,1.07-3.68,1.07-4.65c0-0.46-0.08-0.78-0.22-0.96c-0.15-0.18-0.36-0.26-0.64-0.26C170.75,9.87,170.24,10.28,169.7,11.1z"
		/>
	<path class="st3" d="M201.15,19.83c-0.05,0.18-0.07,0.31-0.07,0.4c0,0.15,0.04,0.28,0.12,0.36c0.08,0.09,0.19,0.13,0.33,0.13
		c0.28,0,0.51-0.12,0.71-0.35c0.19-0.23,0.33-0.35,0.4-0.35c0.12,0,0.21,0.07,0.29,0.21c0.08,0.14,0.12,0.31,0.12,0.51
		c0.02,0.62-0.21,1.23-0.69,1.83c-0.48,0.61-1.16,1.11-2.04,1.5c-0.88,0.4-1.85,0.59-2.94,0.59c-1.36,0-2.44-0.26-3.25-0.79
		c-0.81-0.53-1.33-1.22-1.55-2.08c-0.83,0.88-1.74,1.55-2.75,2c-1,0.45-2.02,0.68-3.06,0.68c-1.61,0-2.97-0.38-4.06-1.14
		c-1.09-0.76-1.64-1.82-1.64-3.18c0-0.62,0.12-1.25,0.35-1.91l2.21-6.9c0.07-0.2,0.1-0.36,0.1-0.5c0-0.24-0.06-0.43-0.17-0.58
		c-0.12-0.14-0.29-0.29-0.52-0.45c-0.23-0.18-0.39-0.33-0.48-0.46c-0.09-0.13-0.1-0.31-0.03-0.53c0.14-0.51,0.86-0.95,2.18-1.34
		c1.31-0.38,2.68-0.58,4.11-0.58c1.34,0,2.31,0.24,2.94,0.73c0.62,0.48,0.93,1.14,0.93,1.98c0,0.51-0.08,0.99-0.24,1.45l-2.18,6.86
		c-0.09,0.24-0.14,0.47-0.14,0.69c0,0.31,0.09,0.54,0.28,0.69c0.18,0.15,0.43,0.23,0.73,0.23c0.44,0,0.79-0.12,1.07-0.36
		c0.28-0.24,0.55-0.65,0.83-1.22l2.11-6.63c0.07-0.2,0.1-0.36,0.1-0.5c0-0.24-0.06-0.43-0.17-0.58c-0.12-0.14-0.28-0.29-0.48-0.45
		c-0.23-0.18-0.39-0.33-0.48-0.46c-0.09-0.13-0.1-0.31-0.03-0.53c0.11-0.51,0.83-0.95,2.14-1.34c1.31-0.38,2.68-0.58,4.11-0.58
		c1.34,0,2.32,0.24,2.95,0.73c0.63,0.48,0.95,1.13,0.95,1.95c0,0.42-0.09,0.91-0.28,1.48L201.15,19.83z"/>
	<path class="st3" d="M220.65,7.13c1.39,0.33,2.46,0.79,3.21,1.39c0.75,0.59,1.12,1.27,1.12,2.01c0,0.77-0.32,1.4-0.95,1.88
		c-0.63,0.48-1.51,0.73-2.64,0.73c-1.15,0-2.12-0.27-2.92-0.83c-0.79-0.55-1.19-1.24-1.19-2.08c0-0.29,0.05-0.56,0.14-0.82
		c-0.41-0.11-0.78-0.17-1.11-0.17c-0.58,0-1.05,0.13-1.43,0.4c-0.38,0.26-0.56,0.64-0.54,1.12c0,0.57,0.3,1.06,0.9,1.45
		c0.6,0.4,1.57,0.89,2.9,1.48c1.15,0.48,2.1,0.93,2.85,1.34c0.75,0.41,1.38,0.92,1.9,1.53c0.52,0.62,0.78,1.34,0.78,2.18
		c0,0.18-0.05,0.51-0.14,0.99c-0.37,1.47-1.39,2.64-3.07,3.5c-1.68,0.86-3.89,1.29-6.63,1.29c-3.09,0-5.53-0.4-7.34-1.19
		c-1.81-0.79-2.71-1.88-2.71-3.27c0-0.95,0.3-1.66,0.9-2.14c0.6-0.48,1.39-0.73,2.38-0.73c1.15,0,2.14,0.34,2.95,1.02
		c0.82,0.68,1.23,1.55,1.23,2.61c0,0.29-0.03,0.58-0.1,0.89c0.55,0.13,1.08,0.2,1.59,0.2c0.6,0,1.09-0.15,1.49-0.46
		c0.39-0.31,0.59-0.74,0.59-1.29c-0.02-0.51-0.29-0.94-0.79-1.3c-0.51-0.36-1.31-0.8-2.42-1.3c-1.04-0.46-1.89-0.9-2.56-1.3
		c-0.67-0.41-1.24-0.92-1.71-1.53c-0.47-0.62-0.71-1.34-0.71-2.18c0-1.8,0.79-3.24,2.37-4.31c1.58-1.07,3.82-1.6,6.72-1.6
		C217.61,6.63,219.26,6.8,220.65,7.13z"/>
	<path class="st3" d="M242.88,8.1c1.31,0.89,1.97,2.03,1.97,3.41c0,0.42-0.05,0.8-0.14,1.15c-0.35,1.45-1.31,2.49-2.88,3.12
		c-1.58,0.63-3.44,0.94-5.58,0.94c-1.08,0-2.1-0.07-3.04-0.2c-0.02,1.14,0.3,1.95,0.97,2.41s1.6,0.69,2.8,0.69
		c0.55,0,1.08-0.06,1.59-0.18c0.51-0.12,1.15-0.3,1.93-0.54c0.64-0.22,1.08-0.33,1.31-0.33c0.25,0,0.38,0.14,0.38,0.43
		c0.02,0.77-0.28,1.58-0.9,2.42c-0.62,0.85-1.54,1.57-2.76,2.16c-1.22,0.59-2.69,0.89-4.42,0.89c-2.56,0-4.65-0.62-6.29-1.85
		c-1.64-1.23-2.45-3.02-2.45-5.38c0-0.66,0.09-1.43,0.28-2.31c0.58-2.71,1.84-4.75,3.78-6.12c1.95-1.37,4.31-2.06,7.1-2.06
		C239.45,6.76,241.57,7.21,242.88,8.1z M233.83,14.58c0.97,0,1.7-0.43,2.21-1.29c0.51-0.86,0.75-1.82,0.73-2.87
		c-0.02-0.62-0.21-0.92-0.55-0.92c-0.25,0-0.55,0.19-0.9,0.58c-0.35,0.39-0.69,0.96-1.02,1.73c-0.33,0.77-0.62,1.68-0.85,2.74
		C233.54,14.57,233.67,14.58,233.83,14.58z"/>
	<circle class="st3" cx="249.44" cy="21.14" r="3.45"/>
</g>
</svg>
