<?xml version="1.0" encoding="UTF-8"?>
<svg id="Layer_1" xmlns="http://www.w3.org/2000/svg" version="1.1" viewBox="0 0 208.09 195.19">
  <!-- Generator: Adobe Illustrator 29.4.0, SVG Export Plug-In . SVG Version: 2.1.0 Build 152)  -->
  <defs>
    <style>
      .st0 {
        fill: #f7e939;
      }

      .st1 {
        fill: #a43c63;
      }

      .st2 {
        fill: none;
        stroke: #e7b242;
      }

      .st2, .st3 {
        stroke-miterlimit: 10;
      }

      .st3 {
        fill: #512e03;
        stroke: #512e03;
      }

      .st4 {
        display: none;
      }
    </style>
  </defs>
  <polyline class="st2" points="188.84 125.47 120.88 125.47 103.74 142.25 86.6 125.47 18.64 125.47"/>
  <g>
    <polygon class="st1" points="98.24 172.49 103.63 161.32 109.21 172.39 121.5 174.07 112.69 182.8 114.89 195 103.87 189.33 92.95 195.19 94.94 182.95 85.99 174.38 98.24 172.49"/>
    <polygon class="st1" points="55.24 172.49 60.63 161.32 66.22 172.39 78.5 174.07 69.7 182.8 71.9 195 60.88 189.33 49.95 195.19 51.94 182.95 42.99 174.38 55.24 172.49"/>
    <polygon class="st1" points="12.25 172.49 17.64 161.32 23.22 172.39 35.51 174.07 26.7 182.8 28.9 195 17.88 189.33 6.96 195.19 8.95 182.95 0 174.38 12.25 172.49"/>
    <polygon class="st0" points="98.24 171.06 103.63 159.89 109.21 170.96 121.5 172.64 112.69 181.37 114.89 193.57 103.87 187.89 92.95 193.76 94.94 181.52 85.99 172.94 98.24 171.06"/>
    <polygon class="st1" points="141.23 171.06 146.62 159.89 152.21 170.96 164.49 172.64 155.69 181.37 157.89 193.57 146.87 187.89 135.94 193.76 137.93 181.52 128.98 172.94 141.23 171.06"/>
    <polygon class="st1" points="184.23 171.06 189.62 159.89 195.2 170.96 207.49 172.64 198.68 181.37 200.88 193.57 189.86 187.89 178.94 193.76 180.93 181.52 171.98 172.94 184.23 171.06"/>
    <polygon class="st0" points="55.24 171.06 60.63 159.89 66.22 170.96 78.5 172.64 69.7 181.37 71.9 193.57 60.88 187.89 49.95 193.76 51.94 181.52 42.99 172.94 55.24 171.06"/>
    <polygon class="st0" points="12.25 171.06 17.64 159.89 23.22 170.96 35.51 172.64 26.7 181.37 28.9 193.57 17.88 187.89 6.96 193.76 8.95 181.52 0 172.94 12.25 171.06"/>
    <polygon class="st0" points="141.13 169.62 146.52 158.46 152.1 169.53 164.39 171.2 155.58 179.93 157.79 192.13 146.76 186.46 135.84 192.32 137.83 180.09 128.88 171.51 141.13 169.62"/>
    <polygon class="st0" points="184.23 169.62 189.62 158.46 195.2 169.53 207.49 171.2 198.68 179.93 200.88 192.13 189.86 186.46 178.94 192.32 180.93 180.09 171.98 171.51 184.23 169.62"/>
  </g>
  <g>
    <g class="st4">
      <path class="st3" d="M71.36,106.11v-3.43h2.17v.49h-1.7v.96h1.62v.47h-1.62v1.04h1.73v.47h-2.2Z"/>
      <path class="st3" d="M77.68,106.11v-.25c-.16.22-.44.36-.74.36-.41-.03-.77-.36-.77-.93v-1.65h.47v1.46c0,.41.16.63.49.6.33-.03.55-.27.55-.69v-1.37h.47v2.47h-.47Z"/>
      <path class="st3" d="M82.16,104.05c-.16,0-.27.03-.38.08-.22.14-.36.38-.36.8v1.18h-.47v-2.47h.47v.3c.08-.14.22-.27.38-.36.11-.05.33-.05.36-.08v.55h0Z"/>
      <path class="st3" d="M86.88,104.87c0,.77-.44,1.35-1.15,1.35s-1.13-.6-1.13-1.35.44-1.35,1.13-1.35,1.15.58,1.15,1.35ZM86.39,104.87c0-.49-.25-.85-.63-.85s-.63.36-.63.85.25.88.63.88.63-.36.63-.88Z"/>
      <path class="st3" d="M91.8,104.87c0,.82-.44,1.35-1.07,1.35-.27,0-.52-.11-.71-.33v.91h-.47v-3.16h.47v.22c.19-.22.44-.33.71-.33.63,0,1.07.52,1.07,1.35ZM91.28,104.87c0-.55-.25-.85-.63-.85-.41,0-.63.33-.63.85,0,.55.22.88.63.88s.63-.33.63-.88Z"/>
      <path class="st3" d="M94.77,105.04c.03.38.3.71.63.71s.49-.22.55-.36h.52c-.11.36-.41.82-1.04.82s-1.15-.6-1.15-1.35.47-1.35,1.15-1.35c.6,0,1.18.49,1.13,1.54h-1.79v-.03ZM96.03,104.62c-.05-.38-.27-.63-.63-.63s-.58.25-.63.63h1.26Z"/>
      <path class="st3" d="M100.76,106.11c-.03-.08-.05-.16-.08-.3-.16.19-.47.36-.8.38-.44.03-.82-.16-.88-.63-.05-.47.19-.74.55-.85.27-.08.55-.08.8-.14.14-.03.33-.05.33-.25,0-.16-.16-.36-.52-.36-.38,0-.58.19-.55.44h-.44c-.05-.55.44-.88.99-.88s1.02.3,1.02.82v1.35c0,.22.08.38.08.41h-.49ZM100.71,104.9c-.08.03-.14.05-.22.08-.16.05-.49.08-.63.14-.22.08-.36.19-.33.41s.3.25.49.22c.41-.05.69-.36.69-.6v-.25h0Z"/>
      <path class="st3" d="M105.43,106.14v-1.46c0-.41-.16-.6-.47-.6-.33,0-.58.27-.58.66v1.4h-.47v-2.47h.47v.22c.19-.19.44-.36.82-.3.49.05.71.52.71.88v1.7l-.49-.03h0Z"/>
      <path class="st3" d="M112.71,105.2c-.03.58-.49.93-1.1.93h-1.32v-3.46h1.35c.55,0,.88.36.93.74.05.38-.14.69-.36.85.25.11.52.44.49.93h0ZM112.08,103.58c0-.27-.16-.44-.52-.44h-.8v.93h.8c.33,0,.52-.19.52-.49ZM112.19,105.09c0-.33-.22-.52-.6-.52h-.85v1.07h.82c.47,0,.63-.22.63-.55h0Z"/>
      <path class="st3" d="M115.3,103.17v-.52h.47v.52h-.47ZM115.3,106.11v-2.5h.47v2.5h-.47Z"/>
      <path class="st3" d="M120.41,105.42c-.03.44-.47.8-.99.8-.8,0-1.04-.6-1.04-.93h.47c.03.25.22.44.58.44.27,0,.47-.11.49-.3.03-.14-.08-.22-.22-.3-.25-.11-.58-.16-.77-.22-.3-.11-.49-.33-.47-.66.03-.36.38-.74.93-.74.6,0,.96.47.93.82h-.44c0-.14-.14-.36-.49-.36-.3,0-.44.14-.44.27,0,.19.14.22.3.27.19.05.55.11.77.22.19.19.41.36.38.69h0Z"/>
      <path class="st3" d="M123.59,106.14c-.16,0-.3-.08-.38-.19-.08-.11-.11-.25-.11-.49v-1.35h-.27v-.47h.27v-.77h.47v.77h.33v.44h-.33v1.29c0,.11-.03.19.05.25.08.05.16.05.27.05v.44l-.3.03h0Z"/>
      <path class="st3" d="M127.77,104.05c-.16,0-.27.03-.38.08-.22.14-.36.38-.36.8v1.18h-.47v-2.47h.47v.3c.08-.14.22-.27.38-.36.11-.05.33-.05.36-.08v.55h0Z"/>
      <path class="st3" d="M132.5,104.87c0,.77-.44,1.35-1.15,1.35s-1.13-.6-1.13-1.35.44-1.35,1.13-1.35,1.15.58,1.15,1.35ZM132,104.87c0-.49-.25-.85-.63-.85s-.63.36-.63.85.25.88.63.88.63-.36.63-.88Z"/>
    </g>
    <g>
      <path class="st3" d="M57.3,69.07c0,.69-.69,1.68-2.09,3s-3.08,2.56-5.08,3.74c-.25.82-.63,2.31-1.13,4.45-.8,3.38-1.54,5.77-2.23,7.17s-1.79,2.86-3.32,4.31c-4.48,4.23-9.48,6.35-15.06,6.35-1.59,0-3-.27-4.23-.8-.69,1.32-1.02,2.47-1.02,3.43,0,1.24.41,2.36,1.24,3.41.08.08.14.19.14.3s-.08.16-.22.16c-.33,0-.69-.44-1.07-1.35-.38-.88-.58-1.73-.58-2.5,0-1.13.36-2.36,1.1-3.71-3-1.54-4.51-4.2-4.51-8,0-2.42.71-4.84,2.14-7.23s3.46-4.56,6.05-6.48c3.32-2.45,6.59-3.65,9.84-3.65,1.76,0,3.16.49,4.2,1.48s1.57,2.34,1.57,4.01c0,.91-.14,1.84-.38,2.83,2.12-1.4,3.98-2.58,5.61-3.57,1.04-2.25,2.34-4.18,3.9-5.8s2.91-2.45,4.09-2.45c.71.03,1.04.33,1.04.88h0ZM42.71,77.15c0-1.51-.47-2.72-1.43-3.63-.96-.91-2.23-1.37-3.79-1.37-3.85,0-7.58,2.01-11.21,6.02-3.6,4.01-5.41,8.19-5.41,12.47,0,2.83,1.04,4.84,3.13,6.02.96-1.62,2.36-3.35,4.2-5.28-.96-.82-1.43-1.79-1.43-2.91,0-.85.27-1.59.82-2.2s1.21-.91,1.98-.91c.96,0,1.43.44,1.43,1.35,0,.47-.16.85-.55,1.21s-.8.49-1.26.49c-.71,0-1.04-.33-1.04-1.02,0-.22.08-.44.22-.69.05-.19.08-.3.08-.33,0-.08-.05-.14-.14-.14-.25,0-.49.25-.74.77s-.38,1.02-.38,1.54c0,.96.44,1.79,1.32,2.53,2.89-3.05,7.45-6.59,13.66-10.66.38-1.26.55-2.36.55-3.27h0ZM48.04,77.06c-1.68,1.07-3.52,2.25-5.5,3.63-.96,3.05-2.61,5.72-4.97,8-2.36,2.31-4.64,3.43-6.84,3.43-.66,0-1.37-.16-2.17-.52-1.62,1.68-3,3.43-4.12,5.3,1.18.52,2.5.8,4.01.8,2.69,0,5.3-.77,7.83-2.28s4.7-3.65,6.48-6.35c.85-1.26,1.51-2.45,2.01-3.52s1.26-3.13,2.36-6.13c.25-.77.55-1.54.91-2.36h0ZM41.97,81.02l-1.43.96c-5.41,3.74-9.31,6.84-11.71,9.31.6.3,1.24.47,1.92.47,2.01,0,4.12-1.04,6.32-3.16s3.82-4.64,4.89-7.58h0ZM56.89,69.12c0-.33-.19-.52-.6-.52-.96,0-2.03.66-3.21,1.98-1.18,1.32-2.09,2.89-2.75,4.67,1.9-1.15,3.46-2.34,4.7-3.49,1.26-1.15,1.87-2.03,1.87-2.64h0Z"/>
      <path class="st3" d="M59.53,90.47c0,.05-.14.22-.38.55l-.93,1.15c-2.97,3.68-5.52,5.5-7.64,5.5-1.02,0-1.84-.36-2.53-1.1-.69-.71-1.02-1.62-1.02-2.72,0-2.58,1.79-4.86,5.41-6.81,1.9-1.04,3.43-1.54,4.62-1.54.52,0,.96.16,1.32.47s.55.69.55,1.13c0,1.04-.69,1.92-2.03,2.64s-3.6,1.4-6.76,2.03c-.96,1.48-1.46,2.72-1.46,3.71,0,1.24.66,1.84,2.01,1.84,2.28,0,5.06-2.2,8.33-6.65.16-.22.3-.33.44-.33.05.03.08.05.08.14h0ZM57.69,86.49c0-.47-.25-.69-.74-.69-.77,0-1.76.52-3,1.59s-2.45,2.42-3.65,4.09c2.06-.52,3.82-1.29,5.25-2.25,1.43-.99,2.14-1.9,2.14-2.75h0Z"/>
      <path class="st3" d="M70.19,90.45c0,.19-1.02,1.4-3.02,3.63-2.2,2.42-4.09,3.63-5.63,3.63-1.02,0-1.87-.38-2.58-1.15-.71-.77-1.07-1.68-1.07-2.75,0-1.21.49-2.45,1.46-3.74s2.28-2.39,3.93-3.32c1.4-.8,2.53-1.21,3.41-1.21,1.07,0,1.59.63,1.59,1.9,0,.99-.33,1.98-.99,2.97-.66.99-1.32,1.48-1.98,1.48s-.96-.33-.96-.96c0-.77.66-1.46,1.98-2.12,1.02-.49,1.54-1.15,1.54-1.98,0-.66-.36-.96-1.04-.96-1.18,0-2.67,1.18-4.4,3.54s-2.61,4.37-2.61,5.96c0,1.35.63,2.03,1.9,2.03,1.98,0,4.67-2.23,8.05-6.7.19-.22.33-.33.41-.33,0-.03.03.03.03.08h0Z"/>
      <path class="st3" d="M82.45,90.45c0,.11-.44.63-1.29,1.57-1.1,1.21-2.12,1.81-3.08,1.81-1.1,0-1.65-.63-1.65-1.9,0-.41.08-.91.25-1.54-.91.8-1.65,1.57-2.2,2.34s-1.54,2.39-2.91,4.78c-.77-.05-1.21-.08-1.35-.08-.05,0-.49.03-1.32.08l3.54-5.72c1.76-2.86,2.64-4.64,2.64-5.33,0-.41-.16-.6-.49-.6-.8,0-2.25,1.54-4.37,4.64-.14.19-.25.3-.36.3-.05,0-.08-.05-.08-.14s.05-.14.08-.16l.38-.55c2.2-2.94,3.71-4.42,4.51-4.42,1.15,0,1.73.74,1.73,2.23,0,1.1-.58,2.58-1.76,4.4.74-.85,1.46-1.57,2.14-2.12.55-1.26,1.24-2.34,2.03-3.21.82-.85,1.54-1.29,2.2-1.29.44,0,.66.19.66.58,0,.69-.99,1.68-3,2.94-.3.19-.8.49-1.43.88l-.25.22c-.19.66-.3,1.21-.3,1.65,0,1.21.44,1.81,1.35,1.81,1.13,0,2.34-.93,3.65-2.78.27-.3.47-.47.55-.47.08-.03.11,0,.11.08h0Z"/>
      <path class="st3" d="M93.27,90.47c0,.05-.14.22-.38.55l-.93,1.15c-2.97,3.68-5.52,5.5-7.64,5.5-1.02,0-1.84-.36-2.53-1.1-.69-.71-1.02-1.62-1.02-2.72,0-2.58,1.79-4.86,5.41-6.81,1.9-1.04,3.43-1.54,4.62-1.54.52,0,.96.16,1.32.47s.55.69.55,1.13c0,1.04-.69,1.92-2.03,2.64s-3.6,1.4-6.76,2.03c-.96,1.48-1.46,2.72-1.46,3.71,0,1.24.66,1.84,2.01,1.84,2.28,0,5.06-2.2,8.33-6.65.16-.22.33-.33.44-.33.08.03.11.05.08.14h0ZM91.46,86.49c0-.47-.25-.69-.74-.69-.77,0-1.76.52-3,1.59s-2.45,2.42-3.65,4.09c2.06-.52,3.82-1.29,5.25-2.25,1.43-.99,2.14-1.9,2.14-2.75h0Z"/>
      <path class="st3" d="M101.21,85.53l-.16.33h-2.83l-4.81,8.19c-.58.99-.88,1.79-.88,2.36,0,.66.33.96,1.02.96,1.32,0,3.52-2.28,6.62-6.84.11-.14.19-.22.25-.22.08,0,.14.05.14.14,0,.05-.08.16-.22.36l-.93,1.26c-2.69,3.74-4.73,5.63-6.1,5.63-.69,0-1.24-.25-1.7-.74-.47-.49-.69-1.1-.69-1.84,0-.85.38-1.92,1.15-3.24l3.63-6.07h-2.2l.22-.33h2.14l2.53-4.18c.44.11.82.16,1.24.16s.82-.05,1.24-.16l-2.47,4.18h2.83v.05Z"/>
      <path class="st3" d="M121.49,90.34c-.08,0-.19.08-.27.22-3.05,4.56-5.25,6.84-6.59,6.84-.47,0-.71-.19-.71-.55,0-.22.14-.63.44-1.24.71-1.43,1.04-2.42,1.04-2.91,0-.91-.74-1.7-2.25-2.39.74-.33,1.7-1.18,2.91-2.53.93-1.1,1.7-1.62,2.34-1.62.44,0,.66.16.66.52,0,.44-.19.8-.58,1.04-.93.58-1.4,1.13-1.4,1.65,0,.55.3.85.93.85.55,0,1.1-.33,1.65-1.02s.82-1.37.82-2.06c0-1.04-.55-1.54-1.65-1.54-.88,0-1.76.49-2.61,1.46-1.57,1.81-2.72,2.89-3.43,3.19-.38-.14-.8-.22-1.26-.22s-.71.11-.71.36c0,.27.25.44.74.44.36,0,.8-.11,1.35-.36.47.27.71.58.71.88,0,.25-.14.66-.41,1.18l-.03.08c-.8,1.59-1.21,2.61-1.21,3.08,0,.52.25,1.02.71,1.43.47.41,1.02.63,1.65.63,1.37,0,3.43-1.87,6.13-5.63l.93-1.26c.14-.19.19-.3.22-.36.03-.14-.03-.16-.11-.16Z"/>
      <path class="st3" d="M121.49,90.34c-.08,0-.19.08-.27.22-3.05,4.56-5.25,6.84-6.59,6.84-.47,0-.71-.19-.71-.55,0-.22.14-.63.44-1.24.71-1.43,1.04-2.42,1.04-2.91,0-.91-.74-1.7-2.25-2.39.74-.33,1.7-1.18,2.91-2.53.93-1.1,1.7-1.62,2.34-1.62.44,0,.66.16.66.52,0,.44-.19.8-.58,1.04-.93.58-1.4,1.13-1.4,1.65,0,.55.3.85.93.85.55,0,1.1-.33,1.65-1.02s.82-1.37.82-2.06c0-1.04-.55-1.54-1.65-1.54-.88,0-1.76.49-2.61,1.46-1.57,1.81-2.72,2.89-3.43,3.19-.38-.14-.8-.22-1.26-.22s-.71.11-.71.36c0,.27.25.44.74.44.36,0,.8-.11,1.35-.36.47.27.71.58.71.88,0,.25-.14.66-.41,1.18l-.03.08c-.8,1.59-1.21,2.61-1.21,3.08,0,.52.25,1.02.71,1.43.47.41,1.02.63,1.65.63,1.37,0,3.43-1.87,6.13-5.63l.93-1.26c.14-.19.19-.3.22-.36.03-.14-.03-.16-.11-.16Z"/>
      <path class="st3" d="M121.49,90.34c-.08,0-.19.08-.27.22-3.05,4.56-5.25,6.84-6.59,6.84-.47,0-.71-.19-.71-.55,0-.22.14-.63.44-1.24.71-1.43,1.04-2.42,1.04-2.91,0-.91-.74-1.7-2.25-2.39.74-.33,1.7-1.18,2.91-2.53.93-1.1,1.7-1.62,2.34-1.62.44,0,.66.16.66.52,0,.44-.19.8-.58,1.04-.93.58-1.4,1.13-1.4,1.65,0,.55.3.85.93.85.55,0,1.1-.33,1.65-1.02s.82-1.37.82-2.06c0-1.04-.55-1.54-1.65-1.54-.88,0-1.76.49-2.61,1.46-1.57,1.81-2.72,2.89-3.43,3.19-.38-.14-.8-.22-1.26-.22s-.71.11-.71.36c0,.27.25.44.74.44.36,0,.8-.11,1.35-.36.47.27.71.58.71.88,0,.25-.14.66-.41,1.18l-.03.08c-.8,1.59-1.21,2.61-1.21,3.08,0,.52.25,1.02.71,1.43.47.41,1.02.63,1.65.63,1.37,0,3.43-1.87,6.13-5.63l.93-1.26c.14-.19.19-.3.22-.36.03-.14-.03-.16-.11-.16Z"/>
      <path class="st3" d="M128.97,90.45c0,.05-.08.16-.22.36l-.93,1.26c-2.69,3.74-4.75,5.63-6.18,5.63-.69,0-1.24-.25-1.7-.71s-.69-1.07-.69-1.79c0-.82.49-2.09,1.48-3.79l3.35-5.72c.44.11.8.14,1.04.14.38,0,.93-.05,1.65-.14l-4.89,8.02c-.71,1.15-1.04,2.06-1.04,2.69s.33.96,1.02.96c1.29,0,3.52-2.28,6.73-6.84.08-.14.14-.22.22-.22.11.03.16.05.16.14ZM128.66,81.54c0,.49-.22.96-.63,1.4s-.88.66-1.37.66c-.63,0-.96-.33-.96-.96,0-.47.22-.93.66-1.37s.91-.66,1.4-.66c.6.03.91.33.91.93h0Z"/>
      <path class="st3" d="M136.93,85.53l-.16.33h-2.83l-4.81,8.19c-.58.99-.88,1.79-.88,2.36,0,.66.33.96,1.02.96,1.32,0,3.52-2.28,6.62-6.84.11-.14.19-.22.25-.22.08,0,.14.05.14.14,0,.05-.08.16-.22.36l-.93,1.26c-2.69,3.74-4.73,5.63-6.1,5.63-.69,0-1.24-.25-1.7-.74-.47-.49-.69-1.1-.69-1.84,0-.85.38-1.92,1.15-3.24l3.63-6.07h-2.2l.22-.33h2.14l2.53-4.18c.44.11.82.16,1.24.16s.82-.05,1.24-.16l-2.47,4.18h2.83v.05Z"/>
      <path class="st3" d="M146.96,90.45c0,.19-1.02,1.4-3.02,3.63-2.2,2.42-4.09,3.63-5.63,3.63-1.02,0-1.87-.38-2.58-1.15s-1.07-1.68-1.07-2.75c0-1.21.49-2.45,1.46-3.74s2.28-2.39,3.93-3.32c1.4-.8,2.53-1.21,3.41-1.21,1.07,0,1.59.63,1.59,1.9,0,.99-.33,1.98-.99,2.97s-1.32,1.48-1.98,1.48-.96-.33-.96-.96c0-.77.66-1.46,1.98-2.12,1.02-.49,1.54-1.15,1.54-1.98,0-.66-.36-.96-1.04-.96-1.18,0-2.67,1.18-4.4,3.54-1.73,2.36-2.61,4.37-2.61,5.96,0,1.35.63,2.03,1.9,2.03,1.98,0,4.67-2.23,8.05-6.7.19-.22.33-.33.41-.33,0-.03.03.03.03.08h0Z"/>
      <path class="st3" d="M160.7,90.42c0,.11-.08.25-.22.38l-.93,1.26c-2.69,3.74-4.73,5.63-6.05,5.63-.69,0-1.26-.25-1.7-.74-.44-.49-.66-1.13-.66-1.87,0-.99.55-2.31,1.65-3.93,1.7-2.5,2.56-4.01,2.56-4.48,0-.55-.3-.82-.88-.82-.85,0-2.03.85-3.52,2.53-1.43,1.62-3.41,4.7-5.91,9.21-.44-.08-.8-.14-1.1-.14s-.74.05-1.26.14l3.16-5.72c.44-.82,1.1-2.03,1.98-3.63.47-.77,1.92-3.24,4.37-7.39l3.27-5.55c.44.08.8.14,1.1.14.58,0,1.13-.08,1.65-.22-1.48,2.39-3.71,5.99-6.68,10.77-.08.14-1.21,2.01-3.32,5.55,2.69-4.01,4.84-6.02,6.4-6.02.6,0,1.15.27,1.59.8s.66,1.18.66,1.92c0,.99-.63,2.42-1.9,4.29-1.4,2.09-2.12,3.38-2.12,3.9,0,.6.3.93.93.93,1.13,0,2.97-1.81,5.55-5.44l.66-.93.38-.47c.08-.14.16-.22.25-.22.05.03.08.05.08.11h0Z"/>
      <path class="st3" d="M171.61,90.47c0,.05-.14.22-.38.55l-.93,1.15c-2.97,3.68-5.52,5.5-7.64,5.5-1.02,0-1.84-.36-2.53-1.1-.69-.71-1.02-1.62-1.02-2.72,0-2.58,1.79-4.86,5.41-6.81,1.9-1.04,3.43-1.54,4.62-1.54.52,0,.96.16,1.32.47s.55.69.55,1.13c0,1.04-.69,1.92-2.03,2.64s-3.6,1.4-6.76,2.03c-.96,1.48-1.46,2.72-1.46,3.71,0,1.24.66,1.84,2.01,1.84,2.28,0,5.06-2.2,8.33-6.65.16-.22.33-.33.44-.33.05.03.08.05.08.14h0ZM169.77,86.49c0-.47-.25-.69-.74-.69-.77,0-1.76.52-3,1.59s-2.45,2.42-3.65,4.09c2.06-.52,3.82-1.29,5.25-2.25,1.43-.99,2.14-1.9,2.14-2.75h0Z"/>
      <path class="st3" d="M188.84,90.45c0,.3-1.04,1.7-3.13,4.18-1.7,2.03-3.05,3.05-4.04,3.05-.63,0-1.18-.25-1.62-.74-.44-.49-.66-1.13-.66-1.84,0-.66.14-1.24.41-1.79s.96-1.65,2.09-3.27c1.15-1.73,1.73-2.83,1.73-3.3,0-.58-.3-.88-.93-.88-2.09,0-5.33,3.87-9.67,11.68-.71-.05-1.13-.08-1.26-.08-.49,0-.96.03-1.43.08l3.35-5.33c1.9-3.05,2.86-4.95,2.86-5.72,0-.44-.19-.66-.55-.66-.74,0-2.17,1.54-4.34,4.64-.14.19-.22.27-.3.3-.08,0-.11-.05-.14-.14,0-.08.05-.14.08-.16l.41-.55c2.2-2.94,3.68-4.42,4.45-4.42.49,0,.91.22,1.24.66s.52.96.52,1.59c0,.91-.55,2.2-1.62,3.82,1.7-2.34,3-3.93,3.9-4.81.91-.85,1.76-1.29,2.53-1.29.63,0,1.15.25,1.59.77s.63,1.15.63,1.92c0,.96-.66,2.45-1.98,4.42-1.35,2.03-2.03,3.32-2.03,3.87,0,.58.3.88.88.88,1.29,0,3.49-2.28,6.62-6.84.08-.14.14-.22.22-.22.14.05.19.08.19.16h0Z"/>
      <path class="st3" d="M82.56,43.76c-.27-.05-.58-.11-.88-.16.3.05.58.11.88.16Z"/>
      <path class="st3" d="M119.76,75.2c-.11.19-.3.49-.55.88-.38.6-.93,1.51-1.68,2.69-.36.6-.91,1.54-1.65,2.78l-3.71,5.99c-1.24,2.01-2.28,3.79-3.13,5.41-.96,1.81-1.73,3.21-2.34,4.2l-.27.44c-.38-.08-.77-.14-1.13-.14-.33,0-.8.05-1.4.14.33-.55.69-1.18,1.1-1.9l2.5-4.34c.38-.66.93-1.62,1.68-2.94l6.1-10.22,1.79-3c.41.08.74.14,1.02.16.11,0,.22.03.3.03.3,0,.74-.05,1.37-.19Z"/>
    </g>
    <g>
      <path class="st3" d="M101.08,77.04c-4.07-1.15-9.07-.58-11.02-.38-1.26.14-2.2.36-2.75.55-.38.14-.8-.05-.99-.41l-.55-1.07c-.22-.44,0-.99.44-1.15,2.03-.71,7.45-2.23,13.96-.71.11,1.13.38,2.23.91,3.19Z"/>
      <path class="st3" d="M101.54,54.04l-.55-2.69c-.25-1.18-1.04-2.14-2.14-2.61l-4.31-1.79c-1.46-.6-3.1,0-3.85,1.4l-1.84,3.54c-.77,1.46-.22,3.24,1.21,4.04l4.18,2.34c.52.3,1.1.44,1.68.47.66.03,1.35-.16,1.92-.49l2.67-1.57c4.42,1.7,6.95,3.87,8,4.89,1.29-.71,2.75-1.1,2.8-1.1h0c-.16-.19-2.97-3.82-9.75-6.43ZM96.35,55.8c-.22.14-.52.14-.77,0l-4.18-2.34c-.08-.05-.14-.16-.08-.27l.6-1.18,5.99,2.83-1.57.96ZM92.61,50.74l.58-1.07c.05-.08.16-.14.25-.08l4.31,1.79c.22.08.41.3.47.55l.3,1.37-5.91-2.56Z"/>
      <path class="st3" d="M135.23,56.9c-3.93,5.06-11.49,7.28-16.76,7.67-4.12.3-7.36,1.07-9.59,2.31-3.96,1.95-4.56,6.73-1.35,8.77,1.79,1.15,4.29,1.29,5.94.33,1.48-.88,2.31-1.92,2.47-3.08.3-2.2-1.7-4.4-1.7-4.4l-.77-.96c.91-.6,2.83-.96,2.83-.96,1.65,1.76,3.1,4.84,2.23,7.75h-.16c-.11,0-.41-.03-1.1-.16l-.77-.14-3.02,5.08c-5.17,1.7-11.6-2.06-10.77-8.08.44-3.74,3.49-8.35,15.55-9.23,2.34-.16,4.97-.71,7.45-1.65h0c2.91-1.1,5.58-2.75,7.28-4.92,1.51-1.98,2.09-4.18,1.65-6.57-1.73-9.1-9.53-8.08-17.83-4.15-.14.05-.27.14-.38.19h0c-4.62,1.95-9.07,1.65-11.43,1.29-.38-.05-.38-.58-.03-.69.16-.03.33-.08.49-.11h0c3.65-.93,6.02-2.72,6.1-2.78h0c1.7-1.02,3.16-2.5,3.68-4.62,2.31-12.56-11.18-18.19-21.98-15.8-.05,0-.08.03-.14.03s-.08.03-.11.03c-5.39,1.26-10.06,4.53-11.68,9.97-.69,2.61-.22,5.08,1.37,7.2,0,.03,1.76,2.45,3.9,3.79.27.16.55.3.82.41.33.14.25.63-.11.66-1.59.11-3,.05-4.81-.25-.27-.05-.58-.14-.88-.16h0c-5-.88-10.25,4.64-7.64,9.67,2.17,4.62,9.07,7.61,15.61,7.36.6,0,.96.74.58,1.21l-.82,1.04c-.08.11-1.54,2.2-1.84,6.1,2.2-.55,7.94-1.59,13.05-.05-.16.77-.36,1.79-.41,2.83-5.25-1.46-10.94-.69-14.29.91-.55.27-1.18-.08-1.18-.69l-.03-.93c-.11-3.49.63-6.07,1.32-7.72-6.57-.74-12.23-4.12-14.51-8.79-1.57-3.21-1.26-6.7.91-9.56,2.56-3.35,5.58-4.26,8.05-4.26-2.03-2.72-2.72-6.13-1.84-9.45,1.98-7.64,10.77-12.69,18.71-12.67,7.03-.08,13.49,1.84,17.72,7.06,3.52,4.42,4.64,10.96,1.68,15.74,9.89-4.48,18.68-3.79,20.75,6.73.58,3.05-.19,6.1-2.2,8.68Z"/>
    </g>
  </g>
</svg>