<?xml version="1.0" encoding="UTF-8"?>
<svg id="Layer_1" xmlns="http://www.w3.org/2000/svg" version="1.1" xmlns:xlink="http://www.w3.org/1999/xlink" viewBox="0 0 618.2 320.7">
  <!-- Generator: Adobe Illustrator 29.3.1, SVG Export Plug-In . SVG Version: 2.1.0 Build 151)  -->
  <defs>
    <style>
      .st0, .st1 {
        fill: #512e03;
      }

      .st2 {
        fill: #fd3d6c;
      }

      .st3 {
        display: none;
        fill: #bfbfbf;
      }

      .st4 {
        fill: #606060;
      }

      .st1 {
        stroke: #512e03;
      }

      .st1, .st5 {
        stroke-miterlimit: 10;
      }

      .st5 {
        fill: #231815;
        stroke: #231815;
      }
    </style>
  </defs>
  <path class="st1" d="M148.8,182.1c0,2.4-2.4,5.7-7.2,10.3s-10.6,8.8-17.4,12.8c-.8,2.8-2.2,7.9-3.9,15.3-2.7,11.6-5.3,19.8-7.6,24.6s-6.1,9.8-11.4,14.8c-15.4,14.5-32.5,21.8-51.7,21.8s-10.3-.9-14.5-2.7c-2.4,4.5-3.5,8.5-3.5,11.8s1.4,8.1,4.2,11.7c.3.3.5.7.5,1s-.3.6-.8.6c-1.1,0-2.4-1.5-3.7-4.6-1.3-3-2-5.9-2-8.6,0-3.9,1.2-8.1,3.8-12.7-10.3-5.3-15.5-14.4-15.5-27.4s2.5-16.6,7.4-24.8,11.9-15.6,20.7-22.2c11.4-8.4,22.6-12.5,33.7-12.5s10.8,1.7,14.4,5.1,5.4,8,5.4,13.8-.5,6.3-1.3,9.7c7.3-4.8,13.7-8.9,19.2-12.3,3.6-7.7,8-14.3,13.4-19.9s10-8.4,14-8.4,3.6,1.1,3.6,3h0l.2-.2ZM98.7,209.8c0-5.2-1.6-9.3-4.9-12.4-3.3-3.1-7.6-4.7-13-4.7-13.2,0-26,6.9-38.5,20.6-12.3,13.8-18.6,28.1-18.6,42.8s3.6,16.6,10.7,20.6c3.3-5.6,8.1-11.5,14.4-18.1-3.3-2.8-4.9-6.1-4.9-10s.9-5.5,2.8-7.5,4.1-3.1,6.8-3.1,4.9,1.5,4.9,4.6-.6,2.9-1.9,4.1-2.7,1.7-4.3,1.7c-2.5,0-3.6-1.1-3.6-3.5s.3-1.5.8-2.4c.2-.7.3-1,.3-1.1,0-.3-.2-.5-.5-.5-.8,0-1.7.8-2.5,2.6s-1.3,3.5-1.3,5.3c0,3.3,1.5,6.1,4.5,8.7,9.9-10.5,25.5-22.6,46.8-36.6,1.3-4.3,1.9-8.1,1.9-11.2h0ZM117,209.5c-5.7,3.7-12.1,7.7-18.9,12.4-3.3,10.5-9,19.6-17.1,27.4-8.1,7.9-15.9,11.8-23.5,11.8s-4.7-.6-7.4-1.8c-5.6,5.7-10.3,11.8-14.1,18.2,4.1,1.8,8.6,2.7,13.8,2.7,9.2,0,18.2-2.6,26.9-7.8s16.1-12.5,22.2-21.8c2.9-4.3,5.2-8.4,6.9-12.1s4.3-10.7,8.1-21c.8-2.6,1.9-5.3,3.1-8.1h0ZM96.2,223.1l-4.9,3.3c-18.6,12.8-32,23.5-40.2,32,2.1,1,4.2,1.6,6.6,1.6,6.9,0,14.1-3.6,21.7-10.8s13.1-15.9,16.8-26h0ZM147.4,182.3c0-1.1-.7-1.8-2.1-1.8-3.3,0-7,2.3-11,6.8-4.1,4.5-7.2,9.9-9.4,16,6.5-4,11.9-8,16.1-12,4.3-4,6.4-7,6.4-9h0Z"/>
  <path class="st1" d="M156.4,255.5c0,.2-.5.8-1.3,1.9l-3.2,4c-10.2,12.6-18.9,18.9-26.2,18.9s-6.3-1.2-8.7-3.8c-2.4-2.5-3.5-5.6-3.5-9.3,0-8.9,6.1-16.7,18.6-23.4,6.5-3.6,11.8-5.3,15.8-5.3s3.3.6,4.5,1.6,1.9,2.4,1.9,3.9c0,3.6-2.4,6.6-7,9s-12.3,4.8-23.2,7c-3.3,5.1-5,9.3-5,12.7s2.3,6.3,6.9,6.3c7.8,0,17.3-7.5,28.6-22.8.6-.8,1-1.1,1.5-1.1s.3.2.3.5h0ZM150.1,241.8c0-1.6-.8-2.4-2.5-2.4-2.6,0-6,1.8-10.3,5.5s-8.4,8.3-12.5,14c7.1-1.8,13.1-4.4,18-7.7,4.9-3.4,7.4-6.5,7.4-9.4h0Z"/>
  <path class="st1" d="M193,255.4c0,.7-3.5,4.8-10.4,12.4-7.5,8.3-14,12.4-19.3,12.4s-6.4-1.3-8.9-4c-2.5-2.6-3.7-5.7-3.7-9.4s1.7-8.4,5-12.8c3.3-4.4,7.8-8.2,13.5-11.4,4.8-2.7,8.7-4.1,11.7-4.1s5.5,2.2,5.5,6.5-1.1,6.8-3.4,10.2c-2.3,3.4-4.5,5.1-6.8,5.1s-3.3-1.1-3.3-3.3,2.3-5,6.8-7.3c3.5-1.7,5.3-4,5.3-6.8s-1.2-3.3-3.6-3.3c-4.1,0-9.1,4.1-15.1,12.2-6,8.1-9,15-9,20.5s2.2,7,6.5,7c6.8,0,16-7.6,27.6-23,.7-.8,1.1-1.1,1.4-1.1v.3h.2Z"/>
  <path class="st1" d="M235,255.4c0,.4-1.5,2.2-4.4,5.4-3.8,4.1-7.3,6.2-10.6,6.2s-5.7-2.2-5.7-6.5.3-3.1.8-5.3c-3.1,2.7-5.7,5.4-7.5,8s-5.3,8.2-10,16.4c-2.6-.2-4.1-.3-4.6-.3s-1.7,0-4.5.3l12.2-19.6c6-9.8,9-15.9,9-18.3s-.6-2.1-1.7-2.1c-2.7,0-7.7,5.3-15,15.9-.5.7-.8,1-1.2,1s-.3-.2-.3-.5.2-.5.3-.6l1.3-1.9c7.5-10.1,12.7-15.2,15.5-15.2,4,0,5.9,2.5,5.9,7.6s-2,8.9-6,15.1c2.5-2.9,5-5.4,7.4-7.3,1.9-4.3,4.2-8,7-11,2.8-2.9,5.3-4.4,7.5-4.4s2.3.7,2.3,2c0,2.4-3.4,5.7-10.3,10.1-1,.7-2.7,1.7-4.9,3l-.8.8c-.7,2.3-1,4.1-1,5.7,0,4.1,1.5,6.2,4.6,6.2s8-3.2,12.5-9.5c.9-1,1.6-1.6,1.9-1.6s.4,0,.4.3h0Z"/>
  <path class="st1" d="M272.2,255.5c0,.2-.5.8-1.3,1.9l-3.2,4c-10.2,12.6-18.9,18.9-26.2,18.9s-6.3-1.2-8.7-3.8c-2.4-2.5-3.5-5.6-3.5-9.3,0-8.9,6.1-16.7,18.6-23.4,6.5-3.6,11.8-5.3,15.8-5.3s3.3.6,4.5,1.6,1.9,2.4,1.9,3.9c0,3.6-2.4,6.6-7,9s-12.3,4.8-23.2,7c-3.3,5.1-5,9.3-5,12.7s2.3,6.3,6.9,6.3c7.8,0,17.3-7.5,28.6-22.8.6-.8,1.1-1.1,1.5-1.1s.4.2.3.5h0ZM265.9,241.8c0-1.6-.8-2.4-2.5-2.4-2.6,0-6,1.8-10.3,5.5s-8.4,8.3-12.5,14c7.1-1.8,13.1-4.4,18-7.7,4.9-3.4,7.4-6.5,7.4-9.4h0Z"/>
  <path class="st1" d="M299.4,238.5l-.6,1.1h-9.7l-16.5,28.1c-2,3.4-3,6.1-3,8.1s1.1,3.3,3.5,3.3c4.5,0,12.1-7.8,22.7-23.5.4-.5.7-.8.8-.8.3,0,.5.2.5.5s-.3.6-.8,1.2l-3.2,4.3c-9.2,12.8-16.2,19.3-20.9,19.3s-4.2-.8-5.8-2.5c-1.6-1.7-2.4-3.8-2.4-6.3s1.3-6.6,4-11.1l12.4-20.8h-7.5l.8-1.1h7.4l8.7-14.3c1.5.4,2.8.6,4.2.6s2.8-.2,4.2-.6l-8.5,14.3h9.7v.2h0Z"/>
  <path class="st5" d="M369,255c-.3,0-.7.3-.9.8-10.5,15.6-18,23.5-22.6,23.5s-2.5-.7-2.5-1.9.5-2.2,1.5-4.2c2.5-4.9,3.6-8.3,3.6-10,0-3.1-2.5-5.8-7.7-8.2,2.5-1.1,5.8-4.1,10-8.7,3.2-3.8,5.8-5.6,8-5.6s2.3.6,2.3,1.8-.7,2.7-2,3.6c-3.2,2-4.8,3.9-4.8,5.7s1,2.9,3.2,2.9,3.8-1.1,5.7-3.5,2.8-4.7,2.8-7.1c0-3.6-1.9-5.3-5.7-5.3s-6,1.7-9,5c-5.4,6.2-9.3,9.9-11.8,10.9-1.3-.5-2.7-.8-4.3-.8s-2.5.4-2.5,1.2.8,1.5,2.5,1.5,2.7-.4,4.6-1.2c1.6.9,2.5,2,2.5,3s-.5,2.3-1.4,4.1v.3c-2.8,5.5-4.2,9-4.2,10.6s.8,3.5,2.5,4.9c1.6,1.4,3.5,2.2,5.7,2.2,4.7,0,11.8-6.4,21-19.3l3.2-4.3c.5-.7.7-1,.8-1.2,0-.5,0-.6-.4-.6h-.1Z"/>
  <path class="st5" d="M369,255c-.3,0-.7.3-.9.8-10.5,15.6-18,23.5-22.6,23.5s-2.5-.7-2.5-1.9.5-2.2,1.5-4.2c2.5-4.9,3.6-8.3,3.6-10,0-3.1-2.5-5.8-7.7-8.2,2.5-1.1,5.8-4.1,10-8.7,3.2-3.8,5.8-5.6,8-5.6s2.3.6,2.3,1.8-.7,2.7-2,3.6c-3.2,2-4.8,3.9-4.8,5.7s1,2.9,3.2,2.9,3.8-1.1,5.7-3.5,2.8-4.7,2.8-7.1c0-3.6-1.9-5.3-5.7-5.3s-6,1.7-9,5c-5.4,6.2-9.3,9.9-11.8,10.9-1.3-.5-2.7-.8-4.3-.8s-2.5.4-2.5,1.2.8,1.5,2.5,1.5,2.7-.4,4.6-1.2c1.6.9,2.5,2,2.5,3s-.5,2.3-1.4,4.1v.3c-2.8,5.5-4.2,9-4.2,10.6s.8,3.5,2.5,4.9c1.6,1.4,3.5,2.2,5.7,2.2,4.7,0,11.8-6.4,21-19.3l3.2-4.3c.5-.7.7-1,.8-1.2,0-.5,0-.6-.4-.6h-.1Z"/>
  <path class="st1" d="M369,255c-.3,0-.7.3-.9.8-10.5,15.6-18,23.5-22.6,23.5s-2.5-.7-2.5-1.9.5-2.2,1.5-4.2c2.5-4.9,3.6-8.3,3.6-10,0-3.1-2.5-5.8-7.7-8.2,2.5-1.1,5.8-4.1,10-8.7,3.2-3.8,5.8-5.6,8-5.6s2.3.6,2.3,1.8-.7,2.7-2,3.6c-3.2,2-4.8,3.9-4.8,5.7s1,2.9,3.2,2.9,3.8-1.1,5.7-3.5,2.8-4.7,2.8-7.1c0-3.6-1.9-5.3-5.7-5.3s-6,1.7-9,5c-5.4,6.2-9.3,9.9-11.8,10.9-1.3-.5-2.7-.8-4.3-.8s-2.5.4-2.5,1.2.8,1.5,2.5,1.5,2.7-.4,4.6-1.2c1.6.9,2.5,2,2.5,3s-.5,2.3-1.4,4.1v.3c-2.8,5.5-4.2,9-4.2,10.6s.8,3.5,2.5,4.9c1.6,1.4,3.5,2.2,5.7,2.2,4.7,0,11.8-6.4,21-19.3l3.2-4.3c.5-.7.7-1,.8-1.2,0-.5,0-.6-.4-.6h-.1Z"/>
  <path class="st1" d="M394.6,255.4c0,.2-.3.6-.8,1.2l-3.2,4.3c-9.2,12.8-16.3,19.3-21.2,19.3s-4.2-.8-5.8-2.5-2.4-3.7-2.4-6.1,1.7-7.2,5.1-13l11.5-19.6c1.5.4,2.7.5,3.6.5,1.3,0,3.2-.2,5.7-.5l-16.8,27.5c-2.5,4-3.6,7.1-3.6,9.2s1.1,3.3,3.5,3.3c4.4,0,12.1-7.8,23.1-23.5.3-.5.5-.8.8-.8s.6.2.6.5v.2ZM393.6,224.9c0,1.7-.8,3.3-2.2,4.8s-3,2.3-4.7,2.3-3.3-1.1-3.3-3.3.8-3.2,2.3-4.7,3.1-2.3,4.8-2.3,3.1,1.1,3.1,3.2h0Z"/>
  <path class="st1" d="M421.9,238.5l-.6,1.1h-9.7l-16.5,28.1c-2,3.4-3,6.1-3,8.1s1.1,3.3,3.5,3.3c4.5,0,12.1-7.8,22.7-23.5.4-.5.7-.8.8-.8.3,0,.5.2.5.5s-.3.6-.8,1.2l-3.2,4.3c-9.2,12.8-16.2,19.3-20.9,19.3s-4.2-.8-5.8-2.5c-1.6-1.7-2.4-3.8-2.4-6.3s1.3-6.6,4-11.1l12.4-20.8h-7.5l.8-1.1h7.4l8.7-14.3c1.5.4,2.8.6,4.2.6s2.8-.2,4.2-.6l-8.5,14.3h9.7v.2h0Z"/>
  <path class="st1" d="M456.3,255.4c0,.7-3.5,4.8-10.4,12.4-7.5,8.3-14,12.4-19.3,12.4s-6.4-1.3-8.9-4-3.7-5.7-3.7-9.4,1.7-8.4,5-12.8,7.8-8.2,13.5-11.4c4.8-2.7,8.7-4.1,11.7-4.1s5.5,2.2,5.5,6.5-1.1,6.8-3.4,10.2-4.5,5.1-6.8,5.1-3.3-1.1-3.3-3.3,2.3-5,6.8-7.3c3.5-1.7,5.3-4,5.3-6.8s-1.2-3.3-3.6-3.3c-4.1,0-9.1,4.1-15.1,12.2-5.9,8.1-9,15-9,20.5s2.2,7,6.5,7c6.8,0,16-7.6,27.6-23,.7-.8,1.1-1.1,1.4-1.1v.3h.2Z"/>
  <path class="st1" d="M503.5,255.3c0,.4-.3.8-.8,1.3l-3.2,4.3c-9.2,12.8-16.2,19.3-20.7,19.3s-4.3-.8-5.8-2.5-2.3-3.9-2.3-6.4,1.9-7.9,5.7-13.5c5.8-8.6,8.8-13.8,8.8-15.4s-1-2.8-3-2.8c-2.9,0-7,2.9-12.1,8.7-4.9,5.6-11.7,16.1-20.3,31.6-1.5-.3-2.7-.5-3.8-.5s-2.5.2-4.3.5l10.8-19.6c1.5-2.8,3.8-7,6.8-12.4,1.6-2.6,6.6-11.1,15-25.4l11.2-19c1.5.3,2.7.5,3.8.5,2,0,3.9-.3,5.7-.8-5.1,8.2-12.7,20.5-22.9,36.9-.3.5-4.1,6.9-11.4,19,9.2-13.8,16.6-20.6,22-20.6s4,.9,5.5,2.7,2.3,4.1,2.3,6.6-2.2,8.3-6.5,14.7c-4.8,7.2-7.3,11.6-7.3,13.4s1,3.2,3.2,3.2c3.9,0,10.2-6.2,19-18.7l2.3-3.2,1.3-1.6c.3-.5.6-.8.8-.8s.3.2.3.4h-.1Z"/>
  <path class="st1" d="M540.9,255.5c0,.2-.5.8-1.3,1.9l-3.2,4c-10.2,12.6-18.9,18.9-26.2,18.9s-6.3-1.2-8.7-3.8c-2.4-2.5-3.5-5.6-3.5-9.3,0-8.9,6.1-16.7,18.6-23.4,6.5-3.6,11.8-5.3,15.8-5.3s3.3.6,4.5,1.6,1.9,2.4,1.9,3.9c0,3.6-2.4,6.6-7,9s-12.3,4.8-23.2,7c-3.3,5.1-5,9.3-5,12.7s2.3,6.3,6.9,6.3c7.8,0,17.3-7.5,28.6-22.8.6-.8,1.1-1.1,1.5-1.1s.3.2.3.5h0ZM534.6,241.8c0-1.6-.8-2.4-2.5-2.4-2.6,0-6,1.8-10.3,5.5s-8.4,8.3-12.5,14c7.1-1.8,13.1-4.4,18-7.7,4.9-3.4,7.4-6.5,7.4-9.4h-.1Z"/>
  <path class="st1" d="M600,255.4c0,1-3.6,5.8-10.7,14.3-5.8,7-10.5,10.5-13.9,10.5s-4.1-.8-5.6-2.5-2.3-3.9-2.3-6.3.5-4.2,1.4-6.1,3.3-5.7,7.2-11.2c4-5.9,5.9-9.7,5.9-11.3s-1-3-3.2-3c-7.2,0-18.3,13.3-33.2,40.1-2.5-.2-3.9-.3-4.3-.3-1.7,0-3.3,0-4.9.3l11.5-18.3c6.5-10.5,9.8-17,9.8-19.6s-.7-2.3-1.9-2.3c-2.5,0-7.4,5.3-14.9,15.9-.5.7-.8.9-1,1-.3,0-.4-.2-.5-.5,0-.3.2-.5.3-.6l1.4-1.9c7.5-10.1,12.6-15.2,15.3-15.2s3.1.8,4.2,2.3,1.8,3.3,1.8,5.5-1.9,7.5-5.6,13.1c5.8-8,10.3-13.5,13.4-16.5,3.1-2.9,6-4.4,8.7-4.4s4,.8,5.5,2.6,2.2,4,2.2,6.6-2.3,8.4-6.8,15.2c-4.6,7-7,11.4-7,13.3s1,3,3,3c4.4,0,12-7.8,22.7-23.5.3-.5.5-.8.8-.8.5.2.7.3.7.6h0Z"/>
  <g>
    <path class="st4" d="M197,309.1v-11.8h7.4v1.7h-5.8v3.3h5.6v1.6h-5.6v3.6h5.9v1.6h-7.5,0Z"/>
    <path class="st4" d="M218.7,309.1v-.8c-.6.8-1.5,1.2-2.5,1.2s-2.6-1.2-2.6-3.2v-5.7h1.6v5c0,1.4.6,2.2,1.7,2.1,1.1,0,1.9-.9,1.9-2.4v-4.7h1.6v8.5h-1.7Z"/>
    <path class="st4" d="M234.1,302.1c-.6,0-.9,0-1.3.3-.8.5-1.2,1.3-1.2,2.7v4.1h-1.6v-8.5h1.6v1c.3-.5.8-.9,1.3-1.2.4-.2,1.1-.2,1.2-.3v1.9h0Z"/>
    <path class="st4" d="M250.3,304.9c0,2.6-1.5,4.6-4,4.6s-3.9-2.1-3.9-4.6,1.5-4.6,3.9-4.6,4,2,4,4.6ZM248.6,304.9c0-1.7-.8-2.9-2.2-2.9s-2.2,1.2-2.2,2.9.8,3,2.2,3,2.2-1.2,2.2-3Z"/>
    <path class="st4" d="M267.2,304.9c0,2.8-1.5,4.6-3.7,4.6s-1.8-.4-2.5-1.1v3.1h-1.6v-10.8h1.6v.8c.7-.8,1.5-1.1,2.5-1.1,2.2,0,3.7,1.8,3.7,4.6h0ZM265.4,304.9c0-1.9-.8-2.9-2.2-2.9s-2.2,1.1-2.2,2.9.8,3,2.2,3,2.2-1.1,2.2-3Z"/>
    <path class="st4" d="M277.3,305.5c0,1.3,1,2.5,2.2,2.5s1.7-.8,1.9-1.2h1.8c-.4,1.2-1.4,2.8-3.6,2.8s-4-2.1-4-4.6,1.6-4.6,4-4.6,4.1,1.7,3.9,5.3h-6.1v-.2ZM281.7,304.1c-.2-1.3-.9-2.2-2.2-2.2s-2,.8-2.2,2.2h4.4Z"/>
    <path class="st4" d="M297.9,309.1c0-.3-.2-.6-.3-1-.6.7-1.6,1.2-2.7,1.3-1.5,0-2.8-.6-3-2.2s.7-2.5,1.9-2.9c.9-.3,1.9-.3,2.7-.5.5,0,1.1-.2,1.1-.8s-.6-1.2-1.8-1.2-2,.7-1.9,1.5h-1.5c-.2-1.9,1.5-3,3.4-3s3.5,1,3.5,2.8v4.6c0,.8.3,1.3.3,1.4h-1.7ZM297.7,305c-.3,0-.5.2-.8.3-.6.2-1.7.3-2.2.5-.8.3-1.2.7-1.1,1.4s1,.8,1.7.8c1.4-.2,2.4-1.2,2.4-2.1v-.8h0Z"/>
    <path class="st4" d="M313.9,309.2v-5c0-1.4-.6-2.1-1.6-2.1s-2,.9-2,2.3v4.8h-1.6v-8.5h1.6v.8c.7-.7,1.5-1.2,2.8-1,1.7.2,2.5,1.8,2.5,3v5.8h-1.7,0Z"/>
    <path class="st4" d="M338.9,306c0,2-1.7,3.2-3.8,3.2h-4.5v-11.9h4.6c1.9,0,3,1.2,3.2,2.5s-.5,2.4-1.2,2.9c.8.4,1.8,1.5,1.7,3.2h0ZM336.7,300.5c0-.9-.6-1.5-1.8-1.5h-2.7v3.2h2.7c1.1,0,1.8-.7,1.8-1.7ZM337.1,305.7c0-1.1-.8-1.8-2.1-1.8h-2.9v3.7h2.8c1.6,0,2.2-.8,2.2-1.9h0Z"/>
    <path class="st4" d="M347.7,299.1v-1.8h1.6v1.8h-1.6ZM347.7,309.1v-8.6h1.6v8.6h-1.6Z"/>
    <path class="st4" d="M365.3,306.8c0,1.5-1.6,2.7-3.4,2.7-2.7,0-3.6-2.1-3.6-3.2h1.6c0,.8.8,1.5,2,1.5s1.6-.4,1.7-1c0-.5-.3-.8-.8-1-.8-.4-2-.6-2.6-.8-1-.4-1.7-1.1-1.6-2.3,0-1.2,1.3-2.5,3.2-2.5s3.3,1.6,3.2,2.8h-1.5c0-.5-.5-1.2-1.7-1.2s-1.5.5-1.5.9.5.8,1,.9c.7.2,1.9.4,2.6.8.7.7,1.4,1.2,1.3,2.4h0Z"/>
    <path class="st4" d="M376.2,309.2c-.6,0-1-.3-1.3-.7-.3-.4-.4-.8-.4-1.7v-4.6h-.9v-1.6h.9v-2.6h1.6v2.6h1.1v1.5h-1.1v4.4c0,.4,0,.7.2.8.3.2.6.2.9.2v1.5h-1v.2Z"/>
    <path class="st4" d="M390.5,302.1c-.6,0-.9,0-1.3.3-.8.5-1.2,1.3-1.2,2.7v4.1h-1.6v-8.5h1.6v1c.3-.5.8-.9,1.3-1.2.4-.2,1.1-.2,1.2-.3v1.9h0Z"/>
    <path class="st4" d="M406.8,304.9c0,2.6-1.5,4.6-4,4.6s-3.9-2.1-3.9-4.6,1.5-4.6,3.9-4.6,4,2,4,4.6ZM405.1,304.9c0-1.7-.8-2.9-2.2-2.9s-2.2,1.2-2.2,2.9.8,3,2.2,3,2.2-1.2,2.2-3Z"/>
  </g>
  <path class="st3" d="M314.4,96.3s32.1-14.1,24.1-43.7c-7.1-25.9-39.1-42.9-69.4-40.5,0,0,43.9-11.3,67.5,8.3,23.6,19.6,24.2,61.4,4.7,69.2-19.4,7.7-26.9,6.7-26.9,6.7h0Z"/>
  <path class="st2" d="M235.4,95.3c-.9-.2-2-.4-3-.6,1,.2,2,.4,3,.6Z"/>
  <path class="st3" d="M355.7,93.8s38.4-14.6,52.1,7.7c13.3,21.5-2.1,42-19.8,49.2,0,0,30-4.6,35.1-28.6s-4.5-44.1-31.6-41.2c-27,3-35.8,12.9-35.8,12.9h0Z"/>
  <path class="st0" d="M363,203.1c-.4.7-1,1.7-1.9,3-1.3,2.1-3.2,5.2-5.7,9.2-1.2,2.1-3.1,5.3-5.7,9.5l-12.7,20.5c-4.2,6.9-7.8,13-10.7,18.6-3.3,6.2-5.9,11-8,14.4l-.9,1.5c-1.3-.3-2.6-.5-3.9-.5s-2.7.2-4.8.5c1.1-1.9,2.4-4.1,3.8-6.5l8.6-14.9c1.3-2.3,3.2-5.6,5.7-10.1l20.9-35.1,6.1-10.3c1.4.3,2.5.5,3.5.6h1c1,0,2.5-.2,4.7-.7v.3Z"/>
  <g>
    <path class="st0" d="M299,209.4c-14-4-31.1-2-37.8-1.3-4.3.5-7.5,1.2-9.4,1.9-1.3.5-2.7-.2-3.4-1.4l-1.9-3.7c-.8-1.5,0-3.4,1.5-4,7-2.5,25.5-7.6,47.9-2.5.4,3.9,1.3,7.6,3.1,10.9h0Z"/>
    <path class="st0" d="M300.6,130.5l-1.9-9.2c-.8-4.1-3.6-7.4-7.4-9l-14.8-6.1c-5-2.1-10.7,0-13.2,4.8l-6.3,12.2c-2.6,5-.8,11.1,4.1,13.9l14.3,8c1.8,1,3.8,1.5,5.7,1.6,2.3,0,4.6-.6,6.6-1.7l9.1-5.4c15.2,5.8,23.8,13.3,27.4,16.8,4.4-2.5,9.4-3.8,9.6-3.8h0c-.6-.7-10.2-13.1-33.5-22.1h.3ZM282.8,136.6c-.8.5-1.8.5-2.6,0l-14.3-8c-.3-.2-.5-.6-.3-.9l2.1-4.1,20.5,9.7-5.4,3.3h0ZM270,119.2l2-3.7c.2-.3.6-.5.8-.3l14.8,6.1c.8.3,1.4,1,1.6,1.9l1,4.7-20.3-8.8h.1Z"/>
    <path class="st0" d="M416.2,140.3c-13.5,17.3-39.4,25-57.5,26.3-14.1,1-25.3,3.7-32.9,7.9-13.6,6.7-15.6,23.1-4.6,30.1,6.1,4,14.7,4.4,20.4,1.1,5.1-3,7.9-6.6,8.5-10.6,1-7.5-5.8-15.1-5.8-15.1l-2.6-3.3c3.1-2.1,9.7-3.3,9.7-3.3,5.7,6,10.7,16.6,7.6,26.6h-.6c-.4,0-1.4,0-3.8-.6l-2.6-.5-10.4,17.4c-17.7,5.8-39.8-7.1-36.9-27.7,1.5-12.8,12-28.7,53.3-31.7,8-.6,17.1-2.5,25.5-5.7h0c10-3.8,19.1-9.4,25-16.9,5.2-6.8,7.2-14.3,5.7-22.5-5.9-31.2-32.7-27.7-61.2-14.2-.5.2-.9.5-1.3.7h0c-15.8,6.7-31.1,5.7-39.2,4.4-1.3-.2-1.3-2,0-2.4.6,0,1.1-.3,1.7-.4h0c12.5-3.2,20.6-9.3,20.9-9.5h0c5.8-3.5,10.8-8.6,12.6-15.8,7.9-43.1-38.4-62.4-75.4-54.2h-.9c-18.5,4.3-34.5,15.6-40.1,34.2-2.4,9-.8,17.4,4.7,24.7,0,0,6,8.4,13.4,13,.9.6,1.9,1,2.8,1.4,1.1.5.8,2.2-.4,2.3-5.5.4-10.3.2-16.5-.8-.9-.2-2-.5-3-.6h0c-17.2-3-35.2,15.9-26.2,33.2,7.4,15.8,31.1,26.1,53.5,25.3,2.1,0,3.3,2.5,2,4.1l-2.8,3.6c-.3.4-5.3,7.5-6.3,20.9,7.5-1.9,27.2-5.5,44.8-.2-.6,2.6-1.2,6.1-1.4,9.7-18-5-37.5-2.4-49,3.1-1.9.9-4.1-.3-4.1-2.4v-3.2c-.5-12,2.1-20.8,4.4-26.5-22.5-2.5-41.9-14.1-49.8-30.2-5.4-11-4.3-23,3.1-32.8,8.8-11.5,19.1-14.6,27.6-14.6-7-9.3-9.3-21-6.3-32.4,6.8-26.2,36.9-43.5,64.2-43.5,24.1-.3,46.3,6.3,60.8,24.2,12.1,15.2,15.9,37.6,5.7,54,33.9-15.4,64.1-13,71.2,23.1,2,10.5-.7,20.9-7.5,29.8v.5Z"/>
  </g>
</svg>