<?xml version="1.0" encoding="UTF-8"?>
<svg id="Layer_1" xmlns="http://www.w3.org/2000/svg" version="1.1" xmlns:xlink="http://www.w3.org/1999/xlink" viewBox="0 0 1200 630">
  <!-- Generator: Adobe Illustrator 29.3.1, SVG Export Plug-In . SVG Version: 2.1.0 Build 151)  -->
  <defs>
    <style>
      .st0, .st1 {
        fill: #512e03;
      }

      .st2 {
        fill: #fd3d6c;
      }

      .st3 {
        fill: #606060;
      }

      .st1 {
        stroke: #512e03;
      }

      .st1, .st4 {
        stroke-miterlimit: 10;
      }

      .st4 {
        fill: #231815;
        stroke: #231815;
      }
    </style>
  </defs>
  <path class="st1" d="M440.9,336.6c0,2.3-2.3,5.7-7.1,10.2s-10.5,8.7-17.3,12.7c-.8,2.8-2.2,7.9-3.8,15.2-2.7,11.5-5.2,19.6-7.6,24.4s-6.1,9.7-11.3,14.7c-15.2,14.4-32.3,21.6-51.3,21.6s-10.2-.9-14.4-2.7c-2.3,4.5-3.5,8.4-3.5,11.7s1.4,8,4.2,11.6c.3.3.5.7.5,1s-.3.6-.7.6c-1.1,0-2.3-1.5-3.6-4.6-1.3-3-2-5.9-2-8.5,0-3.8,1.2-8,3.7-12.6-10.2-5.2-15.3-14.3-15.3-27.2s2.4-16.5,7.3-24.6,11.8-15.5,20.6-22.1c11.3-8.3,22.5-12.4,33.5-12.4s10.8,1.7,14.3,5.1,5.3,8,5.3,13.7-.5,6.3-1.3,9.6c7.2-4.8,13.6-8.8,19.1-12.2,3.6-7.7,8-14.2,13.3-19.7,5.3-5.5,9.9-8.3,13.9-8.3,2.4,0,3.6,1.1,3.6,3h0ZM391.2,364.1c0-5.1-1.6-9.3-4.9-12.3-3.3-3.1-7.6-4.7-12.9-4.7-13.1,0-25.8,6.8-38.2,20.5-12.3,13.7-18.4,27.9-18.4,42.5s3.6,16.5,10.7,20.5c3.3-5.5,8-11.4,14.3-18-3.3-2.8-4.9-6.1-4.9-9.9s.9-5.4,2.8-7.5,4.1-3.1,6.7-3.1,4.9,1.5,4.9,4.6-.6,2.9-1.9,4.1-2.7,1.7-4.3,1.7c-2.4,0-3.6-1.1-3.6-3.5s.3-1.5.7-2.3c.2-.7.3-1,.3-1.1,0-.3-.2-.5-.5-.5-.8,0-1.7.8-2.5,2.6s-1.3,3.5-1.3,5.2c0,3.3,1.5,6.1,4.5,8.6,9.8-10.4,25.4-22.5,46.5-36.3,1.3-4.3,1.9-8,1.9-11.1h0ZM409.4,363.8c-5.7,3.6-12,7.7-18.7,12.3-3.3,10.4-8.9,19.5-16.9,27.2-8,7.9-15.8,11.7-23.3,11.7s-4.7-.6-7.4-1.8c-5.5,5.7-10.2,11.7-14,18.1,4,1.8,8.5,2.7,13.7,2.7,9.2,0,18.1-2.6,26.7-7.8s16-12.4,22.1-21.6c2.9-4.3,5.1-8.3,6.8-12s4.3-10.7,8-20.9c.8-2.6,1.9-5.2,3.1-8h0ZM388.7,377.3l-4.9,3.3c-18.4,12.7-31.7,23.3-39.8,31.7,2.1,1,4.2,1.6,6.5,1.6,6.8,0,14-3.6,21.5-10.8s13-15.8,16.7-25.8h0ZM439.5,336.8c0-1.1-.7-1.8-2.1-1.8-3.3,0-6.9,2.2-10.9,6.7-4,4.5-7.1,9.8-9.4,15.9,6.5-3.9,11.8-8,16-11.9,4.3-3.9,6.4-6.9,6.4-9h0Z"/>
  <path class="st1" d="M448.5,409.4c0,.2-.5.7-1.3,1.9l-3.2,3.9c-10.1,12.5-18.8,18.7-26,18.7s-6.3-1.2-8.6-3.7c-2.3-2.4-3.5-5.5-3.5-9.3,0-8.8,6.1-16.6,18.4-23.2,6.5-3.6,11.7-5.2,15.7-5.2s3.3.6,4.5,1.6,1.9,2.3,1.9,3.8c0,3.6-2.3,6.5-6.9,9s-12.3,4.8-23,6.9c-3.3,5.1-5,9.3-5,12.6s2.2,6.3,6.8,6.3c7.8,0,17.2-7.5,28.3-22.6.6-.7,1-1.1,1.5-1.1.2,0,.3.2.3.5h0ZM442.2,395.9c0-1.6-.8-2.3-2.5-2.3-2.6,0-6,1.8-10.2,5.4s-8.3,8.2-12.4,13.9c7-1.8,13-4.4,17.9-7.7,4.9-3.4,7.3-6.5,7.3-9.4h0Z"/>
  <path class="st1" d="M484.8,409.3c0,.7-3.5,4.8-10.3,12.3-7.5,8.2-13.9,12.3-19.2,12.3s-6.4-1.3-8.8-3.9c-2.4-2.6-3.6-5.7-3.6-9.4s1.7-8.3,5-12.7,7.8-8.1,13.4-11.3c4.8-2.7,8.6-4.1,11.6-4.1s5.4,2.2,5.4,6.5-1.1,6.7-3.4,10.1c-2.2,3.4-4.5,5.1-6.7,5.1s-3.3-1.1-3.3-3.3,2.2-5,6.7-7.2c3.5-1.7,5.2-3.9,5.2-6.7s-1.2-3.3-3.6-3.3c-4,0-9.1,4-15,12.1s-8.9,14.9-8.9,20.3,2.2,6.9,6.5,6.9c6.7,0,15.9-7.6,27.4-22.8.7-.7,1.1-1.1,1.4-1.1,0,0,0,0,0,.3h0Z"/>
  <path class="st1" d="M526.5,409.3c0,.4-1.5,2.2-4.4,5.3-3.7,4.1-7.2,6.2-10.5,6.2s-5.6-2.2-5.6-6.5.3-3.1.8-5.2c-3.1,2.7-5.6,5.3-7.5,8s-5.2,8.1-9.9,16.3c-2.6-.2-4.1-.3-4.6-.3s-1.7,0-4.5.3l12.1-19.5c6-9.7,9-15.8,9-18.1s-.6-2.1-1.7-2.1c-2.7,0-7.7,5.2-14.9,15.8-.5.7-.8,1-1.2,1s-.3-.2-.3-.5.2-.5.3-.6l1.3-1.9c7.5-10,12.6-15.1,15.3-15.1,3.9,0,5.9,2.5,5.9,7.6s-2,8.8-6,15c2.5-2.9,5-5.3,7.3-7.2,1.9-4.3,4.2-8,6.9-10.9,2.8-2.9,5.2-4.4,7.5-4.4s2.2.7,2.2,2c0,2.3-3.4,5.7-10.2,10-1,.7-2.7,1.7-4.9,3l-.8.7c-.7,2.2-1,4.1-1,5.6,0,4.1,1.5,6.2,4.6,6.2s8-3.2,12.4-9.4c.9-1,1.6-1.6,1.9-1.6.3,0,.4,0,.4.3h0Z"/>
  <path class="st1" d="M563.3,409.4c0,.2-.5.7-1.3,1.9l-3.2,3.9c-10.1,12.5-18.8,18.7-26,18.7s-6.3-1.2-8.6-3.7c-2.3-2.4-3.5-5.5-3.5-9.3,0-8.8,6.1-16.6,18.4-23.2,6.5-3.6,11.7-5.2,15.7-5.2s3.3.6,4.5,1.6,1.9,2.3,1.9,3.8c0,3.6-2.3,6.5-6.9,9s-12.3,4.8-23,6.9c-3.3,5.1-5,9.3-5,12.6s2.2,6.3,6.8,6.3c7.8,0,17.2-7.5,28.3-22.6.6-.7,1.1-1.1,1.5-1.1.3,0,.4.2.3.5h0ZM557.2,395.9c0-1.6-.8-2.3-2.5-2.3-2.6,0-6,1.8-10.2,5.4s-8.3,8.2-12.4,13.9c7-1.8,13-4.4,17.9-7.7,4.9-3.4,7.3-6.5,7.3-9.4h0Z"/>
  <path class="st1" d="M590.4,392.6l-.6,1.1h-9.6l-16.4,27.9c-2,3.4-3,6.1-3,8s1.1,3.3,3.5,3.3c4.5,0,12-7.8,22.5-23.3.4-.5.7-.7.8-.7.3,0,.5.2.5.5s-.3.6-.7,1.2l-3.2,4.3c-9.2,12.7-16.1,19.2-20.8,19.2s-4.2-.8-5.8-2.5c-1.6-1.7-2.3-3.7-2.3-6.3s1.3-6.5,3.9-11l12.3-20.7h-7.5l.7-1.1h7.3l8.6-14.2c1.5.4,2.8.6,4.2.6s2.8-.2,4.2-.6l-8.4,14.2h9.6v.2Z"/>
  <path class="st4" d="M659.4,409c-.3,0-.7.3-.9.7-10.4,15.5-17.9,23.3-22.5,23.3s-2.4-.7-2.4-1.9.5-2.2,1.5-4.2c2.4-4.9,3.6-8.2,3.6-9.9,0-3.1-2.5-5.8-7.7-8.1,2.5-1.1,5.8-4,9.9-8.6,3.2-3.7,5.8-5.5,8-5.5s2.2.6,2.2,1.8-.7,2.7-2,3.6c-3.2,2-4.8,3.8-4.8,5.6s1,2.9,3.2,2.9,3.7-1.1,5.6-3.5,2.8-4.7,2.8-7c0-3.6-1.9-5.2-5.6-5.2s-6,1.7-8.9,5c-5.3,6.2-9.3,9.8-11.7,10.9-1.3-.5-2.7-.7-4.3-.7s-2.4.4-2.4,1.2.8,1.5,2.5,1.5,2.7-.4,4.6-1.2c1.6.9,2.4,2,2.4,3s-.5,2.2-1.4,4v.3c-2.8,5.4-4.2,8.9-4.2,10.5s.8,3.5,2.4,4.9c1.6,1.4,3.5,2.2,5.6,2.2,4.7,0,11.7-6.4,20.9-19.2l3.2-4.3c.5-.7.7-1,.7-1.2,0-.5,0-.6-.4-.6Z"/>
  <path class="st4" d="M659.4,409c-.3,0-.7.3-.9.7-10.4,15.5-17.9,23.3-22.5,23.3s-2.4-.7-2.4-1.9.5-2.2,1.5-4.2c2.4-4.9,3.6-8.2,3.6-9.9,0-3.1-2.5-5.8-7.7-8.1,2.5-1.1,5.8-4,9.9-8.6,3.2-3.7,5.8-5.5,8-5.5s2.2.6,2.2,1.8-.7,2.7-2,3.6c-3.2,2-4.8,3.8-4.8,5.6s1,2.9,3.2,2.9,3.7-1.1,5.6-3.5,2.8-4.7,2.8-7c0-3.6-1.9-5.2-5.6-5.2s-6,1.7-8.9,5c-5.3,6.2-9.3,9.8-11.7,10.9-1.3-.5-2.7-.7-4.3-.7s-2.4.4-2.4,1.2.8,1.5,2.5,1.5,2.7-.4,4.6-1.2c1.6.9,2.4,2,2.4,3s-.5,2.2-1.4,4v.3c-2.8,5.4-4.2,8.9-4.2,10.5s.8,3.5,2.4,4.9c1.6,1.4,3.5,2.2,5.6,2.2,4.7,0,11.7-6.4,20.9-19.2l3.2-4.3c.5-.7.7-1,.7-1.2,0-.5,0-.6-.4-.6Z"/>
  <path class="st1" d="M659.4,409c-.3,0-.7.3-.9.7-10.4,15.5-17.9,23.3-22.5,23.3s-2.4-.7-2.4-1.9.5-2.2,1.5-4.2c2.4-4.9,3.6-8.2,3.6-9.9,0-3.1-2.5-5.8-7.7-8.1,2.5-1.1,5.8-4,9.9-8.6,3.2-3.7,5.8-5.5,8-5.5s2.2.6,2.2,1.8-.7,2.7-2,3.6c-3.2,2-4.8,3.8-4.8,5.6s1,2.9,3.2,2.9,3.7-1.1,5.6-3.5,2.8-4.7,2.8-7c0-3.6-1.9-5.2-5.6-5.2s-6,1.7-8.9,5c-5.3,6.2-9.3,9.8-11.7,10.9-1.3-.5-2.7-.7-4.3-.7s-2.4.4-2.4,1.2.8,1.5,2.5,1.5,2.7-.4,4.6-1.2c1.6.9,2.4,2,2.4,3s-.5,2.2-1.4,4v.3c-2.8,5.4-4.2,8.9-4.2,10.5s.8,3.5,2.4,4.9c1.6,1.4,3.5,2.2,5.6,2.2,4.7,0,11.7-6.4,20.9-19.2l3.2-4.3c.5-.7.7-1,.7-1.2,0-.5,0-.6-.4-.6Z"/>
  <path class="st1" d="M684.8,409.3c0,.2-.3.6-.7,1.2l-3.2,4.3c-9.2,12.7-16.2,19.2-21,19.2s-4.2-.8-5.8-2.4-2.3-3.6-2.3-6.1,1.7-7.1,5.1-12.9l11.4-19.5c1.5.4,2.7.5,3.6.5,1.3,0,3.2-.2,5.6-.5l-16.7,27.3c-2.4,3.9-3.6,7-3.6,9.2s1.1,3.3,3.5,3.3c4.4,0,12-7.8,22.9-23.3.3-.5.5-.7.7-.7.4,0,.6.2.6.5ZM683.8,379c0,1.7-.7,3.3-2.2,4.8s-3,2.2-4.7,2.2-3.3-1.1-3.3-3.3.7-3.2,2.2-4.7,3.1-2.2,4.8-2.2c2.1,0,3.1,1.1,3.1,3.2h0Z"/>
  <path class="st1" d="M712,392.6l-.6,1.1h-9.6l-16.4,27.9c-2,3.4-3,6.1-3,8s1.1,3.3,3.5,3.3c4.5,0,12-7.8,22.5-23.3.4-.5.7-.7.8-.7.3,0,.5.2.5.5s-.3.6-.7,1.2l-3.2,4.3c-9.2,12.7-16.1,19.2-20.8,19.2s-4.2-.8-5.8-2.5c-1.6-1.7-2.3-3.7-2.3-6.3s1.3-6.5,3.9-11l12.3-20.7h-7.5l.7-1.1h7.3l8.6-14.2c1.5.4,2.8.6,4.2.6s2.8-.2,4.2-.6l-8.4,14.2h9.6v.2Z"/>
  <path class="st1" d="M746.1,409.3c0,.7-3.5,4.8-10.3,12.3-7.5,8.2-13.9,12.3-19.2,12.3s-6.4-1.3-8.8-3.9-3.6-5.7-3.6-9.4,1.7-8.3,5-12.7,7.8-8.1,13.4-11.3c4.8-2.7,8.6-4.1,11.6-4.1s5.4,2.2,5.4,6.5-1.1,6.7-3.4,10.1-4.5,5.1-6.7,5.1-3.3-1.1-3.3-3.3,2.2-5,6.7-7.2c3.5-1.7,5.2-3.9,5.2-6.7s-1.2-3.3-3.6-3.3c-4,0-9.1,4-15,12.1-5.9,8-8.9,14.9-8.9,20.3s2.2,6.9,6.5,6.9c6.7,0,15.9-7.6,27.4-22.8.7-.7,1.1-1.1,1.4-1.1,0,0,0,0,0,.3h0Z"/>
  <path class="st1" d="M792.9,409.2c0,.4-.3.8-.7,1.3l-3.2,4.3c-9.2,12.7-16.1,19.2-20.6,19.2s-4.3-.8-5.8-2.5c-1.5-1.7-2.2-3.8-2.2-6.4s1.9-7.9,5.6-13.4c5.8-8.5,8.7-13.7,8.7-15.2s-1-2.8-3-2.8c-2.9,0-6.9,2.9-12,8.6-4.9,5.5-11.6,16-20.1,31.3-1.5-.3-2.7-.5-3.7-.5s-2.5.2-4.3.5l10.8-19.5c1.5-2.8,3.7-6.9,6.7-12.3,1.6-2.6,6.5-11,14.9-25.2l11.1-18.9c1.5.3,2.7.5,3.7.5,2,0,3.8-.3,5.6-.7-5.1,8.1-12.6,20.4-22.7,36.7-.3.5-4.1,6.8-11.3,18.9,9.2-13.7,16.5-20.5,21.8-20.5s3.9.9,5.4,2.7,2.2,4,2.2,6.5-2.2,8.2-6.5,14.6c-4.8,7.1-7.2,11.5-7.2,13.3s1,3.2,3.2,3.2c3.8,0,10.1-6.2,18.9-18.5l2.2-3.2,1.3-1.6c.3-.5.6-.7.8-.7.2,0,.3.2.3.4h0Z"/>
  <path class="st1" d="M830,409.4c0,.2-.5.7-1.3,1.9l-3.2,3.9c-10.1,12.5-18.8,18.7-26,18.7s-6.3-1.2-8.6-3.7c-2.3-2.4-3.5-5.5-3.5-9.3,0-8.8,6.1-16.6,18.4-23.2,6.5-3.6,11.7-5.2,15.7-5.2s3.3.6,4.5,1.6,1.9,2.3,1.9,3.8c0,3.6-2.3,6.5-6.9,9s-12.3,4.8-23,6.9c-3.3,5.1-5,9.3-5,12.6s2.2,6.3,6.8,6.3c7.8,0,17.2-7.5,28.3-22.6.6-.7,1.1-1.1,1.5-1.1.2,0,.3.2.3.5h0ZM823.8,395.9c0-1.6-.8-2.3-2.5-2.3-2.6,0-6,1.8-10.2,5.4s-8.3,8.2-12.4,13.9c7-1.8,13-4.4,17.9-7.7,4.9-3.4,7.3-6.5,7.3-9.4h0Z"/>
  <path class="st1" d="M888.7,409.3c0,1-3.6,5.8-10.7,14.2-5.8,6.9-10.4,10.4-13.8,10.4s-4-.8-5.5-2.5c-1.5-1.7-2.2-3.8-2.2-6.3s.5-4.2,1.4-6.1,3.3-5.6,7.1-11.1c3.9-5.9,5.9-9.6,5.9-11.2s-1-3-3.2-3c-7.1,0-18.1,13.2-32.9,39.8-2.4-.2-3.8-.3-4.3-.3-1.7,0-3.3,0-4.9.3l11.4-18.1c6.5-10.4,9.7-16.8,9.7-19.5s-.7-2.2-1.9-2.2c-2.5,0-7.4,5.2-14.8,15.8-.5.7-.7.9-1,1-.3,0-.4-.2-.5-.5,0-.3.2-.5.3-.6l1.4-1.9c7.5-10,12.5-15.1,15.2-15.1s3.1.7,4.2,2.2,1.8,3.3,1.8,5.4c0,3.1-1.9,7.5-5.5,13,5.8-8,10.2-13.4,13.3-16.4,3.1-2.9,6-4.4,8.6-4.4s3.9.8,5.4,2.6,2.2,3.9,2.2,6.5-2.2,8.3-6.7,15.1c-4.6,6.9-6.9,11.3-6.9,13.2s1,3,3,3c4.4,0,11.9-7.8,22.5-23.3.3-.5.5-.7.7-.7.5.2.7.3.7.6h0Z"/>
  <g>
    <path class="st3" d="M488.8,462.7v-11.7h7.4v1.7h-5.8v3.3h5.5v1.6h-5.5v3.6h5.9v1.6h-7.5Z"/>
    <path class="st3" d="M510.3,462.7v-.8c-.6.7-1.5,1.2-2.5,1.2-1.4,0-2.6-1.2-2.6-3.2v-5.6h1.6v5c0,1.4.6,2.2,1.7,2.1,1.1,0,1.9-.9,1.9-2.3v-4.7h1.6v8.4h-1.6Z"/>
    <path class="st3" d="M525.5,455.6c-.6,0-.9,0-1.3.3-.7.5-1.2,1.3-1.2,2.7v4h-1.6v-8.4h1.6v1c.3-.5.7-.9,1.3-1.2.4-.2,1.1-.2,1.2-.3v1.9h0Z"/>
    <path class="st3" d="M541.6,458.5c0,2.6-1.5,4.6-3.9,4.6s-3.8-2.1-3.8-4.6,1.5-4.6,3.8-4.6,3.9,2,3.9,4.6ZM539.9,458.5c0-1.7-.8-2.9-2.2-2.9s-2.2,1.2-2.2,2.9.8,3,2.2,3,2.2-1.2,2.2-3Z"/>
    <path class="st3" d="M558.4,458.5c0,2.8-1.5,4.6-3.6,4.6s-1.8-.4-2.4-1.1v3.1h-1.6v-10.8h1.6v.7c.7-.7,1.5-1.1,2.4-1.1,2.2,0,3.6,1.8,3.6,4.6ZM556.6,458.5c0-1.9-.8-2.9-2.2-2.9s-2.2,1.1-2.2,2.9.7,3,2.2,3,2.2-1.1,2.2-3Z"/>
    <path class="st3" d="M568.5,459c0,1.3,1,2.4,2.2,2.4s1.7-.7,1.9-1.2h1.8c-.4,1.2-1.4,2.8-3.6,2.8s-3.9-2.1-3.9-4.6,1.6-4.6,3.9-4.6,4,1.7,3.8,5.2h-6.1ZM572.8,457.6c-.2-1.3-.9-2.2-2.2-2.2s-2,.8-2.2,2.2h4.3Z"/>
    <path class="st3" d="M588.9,462.7c0-.3-.2-.6-.3-1-.6.7-1.6,1.2-2.7,1.3-1.5,0-2.8-.6-3-2.2-.2-1.6.7-2.5,1.9-2.9.9-.3,1.9-.3,2.7-.5.5,0,1.1-.2,1.1-.8s-.6-1.2-1.8-1.2-2,.7-1.9,1.5h-1.5c-.2-1.9,1.5-3,3.4-3s3.5,1,3.5,2.8v4.6c0,.7.3,1.3.3,1.4h-1.7ZM588.7,458.5c-.3,0-.5.2-.7.3-.6.2-1.7.3-2.2.5-.7.3-1.2.7-1.1,1.4s1,.8,1.7.7c1.4-.2,2.3-1.2,2.3-2.1v-.8h0Z"/>
    <path class="st3" d="M604.8,462.8v-5c0-1.4-.6-2.1-1.6-2.1s-2,.9-2,2.2v4.8h-1.6v-8.4h1.6v.7c.7-.7,1.5-1.2,2.8-1,1.7.2,2.4,1.8,2.4,3v5.8h-1.7Z"/>
    <path class="st3" d="M629.6,459.6c0,2-1.7,3.2-3.7,3.2h-4.5v-11.8h4.6c1.9,0,3,1.2,3.2,2.5.2,1.3-.5,2.3-1.2,2.9.8.4,1.8,1.5,1.7,3.2h0ZM627.4,454.1c0-.9-.6-1.5-1.8-1.5h-2.7v3.2h2.7c1.1,0,1.8-.7,1.8-1.7ZM627.8,459.2c0-1.1-.7-1.8-2.1-1.8h-2.9v3.6h2.8c1.6,0,2.2-.7,2.2-1.9h0Z"/>
    <path class="st3" d="M638.4,452.7v-1.8h1.6v1.8h-1.6ZM638.4,462.7v-8.5h1.6v8.5h-1.6Z"/>
    <path class="st3" d="M655.8,460.3c0,1.5-1.6,2.7-3.4,2.7-2.7,0-3.6-2.1-3.6-3.2h1.6c0,.8.7,1.5,2,1.5s1.6-.4,1.7-1c0-.5-.3-.7-.7-1-.8-.4-2-.6-2.6-.7-1-.4-1.7-1.1-1.6-2.2,0-1.2,1.3-2.5,3.2-2.5s3.3,1.6,3.2,2.8h-1.5c0-.5-.5-1.2-1.7-1.2s-1.5.5-1.5.9.5.7,1,.9c.7.2,1.9.4,2.6.7.7.7,1.4,1.2,1.3,2.3h0Z"/>
    <path class="st3" d="M666.6,462.8c-.6,0-1-.3-1.3-.7-.3-.4-.4-.8-.4-1.7v-4.6h-.9v-1.6h.9v-2.6h1.6v2.6h1.1v1.5h-1.1v4.4c0,.4,0,.7.2.8.3.2.6.2.9.2v1.5h-1Z"/>
    <path class="st3" d="M680.8,455.6c-.6,0-.9,0-1.3.3-.7.5-1.2,1.3-1.2,2.7v4h-1.6v-8.4h1.6v1c.3-.5.7-.9,1.3-1.2.4-.2,1.1-.2,1.2-.3v1.9h0Z"/>
    <path class="st3" d="M696.9,458.5c0,2.6-1.5,4.6-3.9,4.6s-3.8-2.1-3.8-4.6,1.5-4.6,3.8-4.6,3.9,2,3.9,4.6ZM695.2,458.5c0-1.7-.8-2.9-2.2-2.9s-2.2,1.2-2.2,2.9.8,3,2.2,3,2.2-1.2,2.2-3Z"/>
  </g>
  <path class="st2" d="M526.8,250.4c-.9-.2-2-.4-3-.6,1,.2,2,.4,3,.6Z"/>
  <path class="st0" d="M653.5,357.4c-.4.7-1,1.7-1.9,3-1.3,2.1-3.2,5.1-5.7,9.2-1.2,2.1-3.1,5.2-5.6,9.4l-12.6,20.4c-4.2,6.8-7.8,12.9-10.7,18.4-3.3,6.2-5.9,10.9-8,14.3l-.9,1.5c-1.3-.3-2.6-.5-3.8-.5s-2.7.2-4.8.5c1.1-1.9,2.3-4,3.7-6.5l8.5-14.8c1.3-2.2,3.2-5.5,5.7-10l20.8-34.8,6.1-10.2c1.4.3,2.5.5,3.5.6.4,0,.7,0,1,0,1,0,2.5-.2,4.7-.7Z"/>
  <g>
    <path class="st0" d="M590,363.7c-13.8-3.9-30.9-2-37.5-1.3-4.3.5-7.5,1.2-9.4,1.9-1.3.5-2.7-.2-3.4-1.4l-1.9-3.6c-.7-1.5,0-3.4,1.5-3.9,6.9-2.4,25.4-7.6,47.5-2.4.4,3.8,1.3,7.6,3.1,10.9Z"/>
    <path class="st0" d="M591.6,285.4l-1.9-9.2c-.8-4-3.6-7.3-7.3-8.9l-14.7-6.1c-5-2.1-10.6,0-13.1,4.8l-6.3,12.1c-2.6,5-.7,11,4.1,13.8l14.2,8c1.8,1,3.7,1.5,5.7,1.6,2.2,0,4.6-.6,6.5-1.7l9.1-5.3c15.1,5.8,23.7,13.2,27.2,16.7,4.4-2.4,9.4-3.7,9.5-3.7h0c-.6-.7-10.1-13-33.2-21.9ZM573.9,291.4c-.7.5-1.8.5-2.6,0l-14.2-8c-.3-.2-.5-.6-.3-.9l2.1-4,20.4,9.6-5.3,3.3ZM561.2,274.2l2-3.6c.2-.3.6-.5.8-.3l14.7,6.1c.7.3,1.4,1,1.6,1.9l1,4.7-20.1-8.7Z"/>
    <path class="st0" d="M706.3,295.1c-13.4,17.2-39.1,24.8-57.1,26.1-14,1-25.1,3.6-32.6,7.9-13.5,6.6-15.5,22.9-4.6,29.8,6.1,3.9,14.6,4.4,20.2,1.1,5.1-3,7.9-6.5,8.4-10.5,1-7.5-5.8-15-5.8-15l-2.6-3.3c3.1-2.1,9.6-3.3,9.6-3.3,5.6,6,10.6,16.5,7.6,26.4h-.6c-.4,0-1.4,0-3.7-.6l-2.6-.5-10.3,17.3c-17.6,5.8-39.5-7-36.7-27.5,1.5-12.7,11.9-28.4,52.9-31.4,8-.6,16.9-2.4,25.4-5.6h0c9.9-3.7,19-9.4,24.8-16.7,5.1-6.7,7.1-14.2,5.6-22.4-5.9-31-32.5-27.5-60.7-14.1-.5.2-.9.5-1.3.7h0c-15.7,6.6-30.9,5.6-38.9,4.4-1.3-.2-1.3-2,0-2.3.6,0,1.1-.3,1.7-.4h0c12.4-3.2,20.5-9.3,20.8-9.4h0c5.8-3.5,10.8-8.5,12.5-15.7,7.9-42.7-38.1-61.9-74.8-53.8-.2,0-.3,0-.5,0s-.3,0-.4,0c-18.3,4.3-34.2,15.4-39.8,34-2.3,8.9-.7,17.3,4.7,24.5,0,0,6,8.3,13.3,12.9.9.6,1.9,1,2.8,1.4,1.1.5.8,2.2-.4,2.2-5.4.4-10.2.2-16.4-.8-.9-.2-2-.5-3-.6h0c-17-3-34.9,15.8-26,32.9,7.4,15.7,30.9,25.9,53.1,25.1,2.1,0,3.3,2.5,2,4.1l-2.8,3.6c-.3.4-5.2,7.5-6.3,20.8,7.5-1.9,27-5.4,44.4-.2-.6,2.6-1.2,6.1-1.4,9.6-17.9-5-37.2-2.3-48.6,3.1-1.9.9-4-.3-4-2.3v-3.2c-.5-11.9,2.1-20.7,4.4-26.3-22.4-2.5-41.6-14-49.4-29.9-5.3-10.9-4.3-22.8,3.1-32.6,8.7-11.4,19-14.5,27.4-14.5-6.9-9.3-9.3-20.9-6.3-32.2,6.7-26,36.7-43.2,63.7-43.1,23.9-.3,45.9,6.3,60.3,24,12,15.1,15.8,37.3,5.7,53.6,33.7-15.2,63.6-12.9,70.6,22.9,2,10.4-.7,20.8-7.5,29.6Z"/>
  </g>
</svg>