<?xml version="1.0" encoding="UTF-8"?>
<svg id="_레이어_1" xmlns="http://www.w3.org/2000/svg" version="1.1" viewBox="0 0 1200 1200">
  <!-- Generator: Adobe Illustrator 29.3.1, SVG Export Plug-In . SVG Version: 2.1.0 Build 151)  -->
  <defs>
    <style>
      .st0 {
        fill: #231815;
        stroke: #231815;
        stroke-miterlimit: 10;
      }
    </style>
  </defs>
  <path class="st0" d="M393.9,523.5c0,3-3,7.4-9.1,13.2-6.1,5.8-13.5,11.1-22.3,16.5-1.1,3.5-2.8,10.2-5,19.7-3.5,14.8-6.9,25.4-9.8,31.5-3,6.3-7.8,12.6-14.7,19.1-19.7,18.5-41.7,28-66.2,28s-13.2-1.1-18.5-3.5c-3,5.8-4.5,10.9-4.5,15.2s1.9,10.4,5.4,15c.4.4.6.7.6,1.3s-.4.7-.9.7c-1.5,0-3-2-4.6-5.9s-2.6-7.6-2.6-10.9c0-5,1.7-10.4,4.8-16.3-13.2-6.9-19.8-18.5-19.8-35.2s3.2-21.3,9.5-31.9,15.2-20,26.7-28.6c14.7-10.8,29.1-16.1,43.4-16.1s13.9,2.2,18.5,6.5,6.9,10.2,6.9,17.8-.6,8.2-1.7,12.4c9.3-6.1,17.4-11.5,24.7-15.8,4.6-10,10.2-18.5,17.3-25.6s12.8-10.8,18-10.8,4.5,1.3,4.5,3.7h-.4ZM329.7,559c0-6.7-2-12.1-6.3-16-4.3-4.1-9.8-6.1-16.7-6.1-17.1,0-33.4,8.9-49.3,26.5-16,17.6-23.9,36-23.9,55.1s4.6,21.3,13.7,26.5c4.3-7,10.4-14.8,18.5-23.2-4.1-3.5-6.3-8-6.3-12.8s1.3-7,3.5-9.6c2.4-2.6,5.4-4.1,8.7-4.1s6.3,2,6.3,5.9-.7,3.7-2.4,5.2-3.5,2.2-5.6,2.2c-3.2,0-4.6-1.5-4.6-4.5s.4-2,.9-3c.2-.7.4-1.3.4-1.5,0-.4-.2-.6-.6-.6-1.1,0-2.2,1.1-3.3,3.3-1.1,2.2-1.7,4.5-1.7,6.7,0,4.1,1.9,8,5.8,11.1,12.8-13.4,32.8-29.1,60.3-46.9,1.7-5.6,2.4-10.4,2.4-14.5h.2ZM353.1,558.6c-7.4,4.6-15.4,10-24.3,16-4.1,13.4-11.5,25.2-21.9,35.2-10.4,10-20.6,15.2-30,15.2s-6.1-.7-9.6-2.2c-7,7.4-13.2,15.2-18.2,23.4,5.2,2.4,11.1,3.5,17.6,3.5,11.9,0,23.4-3.3,34.5-10,11.1-6.7,20.6-16.1,28.6-28,3.7-5.6,6.7-10.8,8.9-15.6s5.6-13.7,10.4-26.9c1.1-3.3,2.4-6.7,4.1-10.4v-.2ZM326.4,576.2l-6.3,4.3c-23.7,16.5-41,30-51.6,41,2.6,1.3,5.6,2,8.5,2,8.9,0,18.2-4.6,27.8-13.9s16.9-20.4,21.5-33.4ZM392.2,523.7c0-1.5-.9-2.2-2.6-2.2-4.3,0-8.9,3-14.1,8.7s-9.3,12.6-12.1,20.6c8.3-5.2,15.2-10.2,20.8-15.4,5.4-5.2,8.2-9.1,8.2-11.7h-.2Z"/>
  <path class="st0" d="M403.7,617.8c0,.2-.6.9-1.7,2.4l-4.1,5.2c-13.2,16.1-24.3,24.3-33.8,24.3s-8.2-1.7-11.1-4.8-4.5-7.2-4.5-12.1c0-11.3,8-21.3,23.7-30,8.3-4.6,15.2-6.9,20.4-6.9s4.3.7,5.8,2c1.7,1.3,2.4,3,2.4,5,0,4.6-3,8.3-8.9,11.7-5.9,3.3-16,6.1-29.9,8.9-4.3,6.5-6.5,11.9-6.5,16.3s3,8.2,8.9,8.2c10,0,22.3-9.8,36.7-29.3.7-.9,1.3-1.5,1.9-1.5s.4.2.4.6h.2ZM395.6,600.1c0-2-1.1-3-3.3-3-3.3,0-7.8,2.4-13.2,7-5.4,4.6-10.8,10.8-16.1,18,9.1-2.4,16.9-5.6,23.2-9.8s9.5-8.3,9.5-12.1h0v-.2Z"/>
  <path class="st0" d="M450.7,617.8c0,.7-4.5,6.1-13.4,16-9.8,10.6-18,16-24.9,16s-8.2-1.7-11.3-5-4.8-7.4-4.8-12.1,2.2-10.8,6.5-16.5,10-10.6,17.4-14.7c6.1-3.5,11.1-5.4,15-5.4s7,2.8,7,8.3-1.5,8.7-4.5,13.2c-3,4.5-5.9,6.5-8.7,6.5s-4.3-1.5-4.3-4.3,3-6.5,8.7-9.3c4.5-2.2,6.7-5.2,6.7-8.7s-1.5-4.3-4.6-4.3c-5.2,0-11.7,5.2-19.3,15.6-7.6,10.4-11.5,19.1-11.5,26.3s2.8,8.9,8.3,8.9c8.7,0,20.6-9.8,35.4-29.5.7-.9,1.5-1.5,1.9-1.5s.4.2.4.6h0l-.2-.2Z"/>
  <path class="st0" d="M504.8,617.8c0,.6-1.9,2.8-5.8,6.9-4.8,5.4-9.3,8-13.5,8s-7.2-2.8-7.2-8.3.4-4.1,1.1-6.7c-3.9,3.5-7.2,6.9-9.6,10.4-2.4,3.3-6.9,10.4-13,20.8-3.3-.2-5.4-.4-5.9-.4s-2.2,0-5.8.4l15.6-25.2c7.8-12.6,11.7-20.4,11.7-23.6s-.7-2.6-2.2-2.6c-3.5,0-10,6.9-19.3,20.4-.6.9-1.1,1.3-1.5,1.3s-.4-.2-.4-.6.2-.6.4-.7l1.7-2.4c9.8-13,16.3-19.5,19.8-19.5,5,0,7.6,3.3,7.6,9.8s-2.6,11.3-7.8,19.3c3.3-3.7,6.5-6.9,9.5-9.3,2.4-5.6,5.4-10.4,8.9-14.1,3.5-3.7,6.9-5.8,9.6-5.8s3,.9,3,2.6c0,3-4.5,7.4-13.2,13-1.3.9-3.5,2.2-6.3,3.9l-1.1.9c-.9,3-1.3,5.4-1.3,7.2,0,5.4,2,8,5.9,8s10.4-4.1,16.1-12.2c1.3-1.3,2-2,2.4-2s.6.2.6.6h0Z"/>
  <path class="st0" d="M552.5,617.8c0,.2-.6.9-1.7,2.4l-4.1,5.2c-13.2,16.1-24.3,24.3-33.8,24.3s-8.2-1.7-11.1-4.8-4.5-7.2-4.5-12.1c0-11.3,8-21.3,23.7-30,8.3-4.6,15.2-6.9,20.4-6.9s4.3.7,5.8,2c1.7,1.3,2.4,3,2.4,5,0,4.6-3,8.3-8.9,11.7-5.9,3.2-16,6.1-29.9,8.9-4.3,6.5-6.5,11.9-6.5,16.3s3,8.2,8.9,8.2c10,0,22.3-9.8,36.7-29.3.7-.9,1.3-1.5,1.9-1.5s.4.2.4.6h.2ZM544.5,600.1c0-2-1.1-3-3.3-3-3.3,0-7.8,2.4-13.2,7s-10.8,10.8-16.1,18c9.1-2.4,16.9-5.6,23.2-9.8s9.5-8.3,9.5-12.1h0v-.2Z"/>
  <path class="st0" d="M587.4,595.9l-.7,1.5h-12.4l-21.1,36.2c-2.6,4.5-3.9,7.8-3.9,10.4s1.5,4.3,4.5,4.3c5.8,0,15.4-10,29.1-30,.4-.6.7-.9,1.1-.9s.6.2.6.6-.4.7-.9,1.5l-4.1,5.6c-11.9,16.5-20.8,24.9-26.9,24.9s-5.4-1.1-7.4-3.2c-2-2.2-3-4.8-3-8s1.7-8.5,5-14.3l16-26.7h-9.6l.9-1.5h9.5l11.1-18.4c1.9.6,3.7.7,5.4.7s3.5-.2,5.6-.7l-10.9,18.4h12.4v-.2Z"/>
  <path class="st0" d="M669.2,550.6c-.6.9-1.3,2.2-2.4,3.9-1.7,2.6-4.1,6.7-7.4,11.9-1.7,2.8-4.1,6.9-7.2,12.2l-16.3,26.3c-5.4,8.7-10,16.7-13.9,23.9-4.3,8-7.6,14.1-10.2,18.5l-1.3,1.9c-1.7-.4-3.3-.6-5-.6s-3.5.2-6.1.6c1.5-2.4,3.2-5.2,4.8-8.3l10.9-19.1c1.7-2.8,4.1-7,7.4-12.8l34.9-58.2c2.6.6,4.5.7,5.8.7s3.3-.2,6.1-.7h0v-.2ZM677.4,617.8c0,.2-.4.7-.9,1.5l-4.1,5.6c-12.1,16.5-21,24.9-27.1,24.9s-5.2-.9-7.2-2.8-3.2-3.9-3.2-6.3,1.7-6.5,5.4-13.5v-.4c1.3-2.4,1.9-4.1,1.9-5.2s-1.1-2.8-3.2-3.9c-2.4.9-4.5,1.5-5.9,1.5s-3.3-.6-3.3-1.9,1.1-1.7,3.2-1.7,3.9.4,5.6.9c3.2-1.3,8.2-6.1,15.2-14.1,3.7-4.3,7.6-6.5,11.5-6.5s7.2,2.2,7.2,6.9-1.3,6.1-3.7,9.1-4.8,4.5-7.2,4.5-4.1-1.3-4.1-3.7,2-4.6,6.1-7.2c1.7-1.1,2.6-2.6,2.6-4.6s-.9-2.2-3-2.2-6.1,2.4-10.2,7.2c-5.2,5.9-9.5,9.6-12.8,11.1,6.5,3,9.8,6.5,9.8,10.6s-1.5,6.5-4.6,12.8c-1.3,2.6-2,4.5-2,5.6,0,1.7,1.1,2.4,3.2,2.4,5.9,0,15.6-10,29.1-30,.4-.6.9-.9,1.3-.9s.6.2.6.6h0Z"/>
  <path class="st0" d="M709.6,617.8c0,.2-.4.7-.9,1.5l-4.1,5.6c-11.9,16.5-21,24.9-27.3,24.9s-5.4-1.1-7.4-3.2-3-4.8-3-8,2.2-9.3,6.5-16.7l14.8-25c2,.4,3.5.7,4.6.7,1.7,0,4.1-.2,7.2-.7l-21.5,35.4c-3.2,5.2-4.6,9.1-4.6,11.9s1.5,4.3,4.5,4.3c5.6,0,15.6-10,29.7-30,.4-.6.6-.9.9-.9s.6.2.6.6h0v-.2ZM708.3,578.4c0,2.2-.9,4.3-2.8,6.1s-3.9,3-6.1,3-4.3-1.5-4.3-4.3.9-4.1,3-5.9,4.1-3,6.1-3,4.1,1.3,4.1,4.1h0Z"/>
  <path class="st0" d="M744.9,595.9l-.7,1.5h-12.4l-21.1,36.2c-2.6,4.5-3.9,7.8-3.9,10.4s1.5,4.3,4.5,4.3c5.8,0,15.4-10,29.1-30,.4-.6.7-.9,1.1-.9s.6.2.6.6-.4.7-.9,1.5l-4.1,5.6c-11.9,16.5-20.8,24.9-26.9,24.9s-5.4-1.1-7.4-3.2c-2-2.2-3-4.8-3-8s1.7-8.5,5-14.3l16-26.7h-9.6l.9-1.5h9.5l11.1-18.4c1.9.6,3.7.7,5.4.7s3.5-.2,5.6-.7l-10.9,18.4h12.4v-.2Z"/>
  <path class="st0" d="M789,617.8c0,.7-4.5,6.1-13.4,16-9.8,10.6-18,16-24.9,16s-8.2-1.7-11.3-5c-3.2-3.3-4.8-7.4-4.8-12.1s2.2-10.8,6.5-16.5c4.3-5.8,10-10.6,17.4-14.7,6.1-3.5,11.1-5.4,15-5.4s7,2.8,7,8.3-1.5,8.7-4.5,13.2c-3,4.5-5.9,6.5-8.7,6.5s-4.3-1.5-4.3-4.3,3-6.5,8.7-9.3c4.5-2.2,6.7-5.2,6.7-8.7s-1.5-4.3-4.6-4.3c-5.2,0-11.7,5.2-19.3,15.6-7.6,10.4-11.5,19.1-11.5,26.3s2.8,8.9,8.3,8.9c8.7,0,20.6-9.8,35.4-29.5.7-.9,1.5-1.5,1.9-1.5s.4.2.4.6h0l-.2-.2Z"/>
  <path class="st0" d="M849.5,617.6c0,.6-.4,1.1-.9,1.7l-4.1,5.6c-11.9,16.5-20.8,24.9-26.5,24.9s-5.6-1.1-7.4-3.3c-1.9-2.2-3-5-3-8.2s2.4-10.2,7.2-17.4c7.6-11.1,11.3-17.6,11.3-19.7s-1.3-3.7-3.9-3.7c-3.7,0-8.9,3.7-15.6,11.1-6.3,7-15,20.6-26.2,40.6-1.9-.4-3.5-.6-4.8-.6s-3.3.2-5.6.6l13.9-25.2c1.9-3.5,4.8-8.9,8.7-16,2-3.3,8.5-14.3,19.3-32.6l14.5-24.5c1.9.4,3.5.6,4.8.6,2.6,0,5-.4,7.2-.9-6.7,10.6-16.3,26.3-29.3,47.5-.4.6-5.2,8.7-14.7,24.5,11.9-17.6,21.3-26.5,28.2-26.5s5,1.1,7,3.5c1.9,2.4,3,5.2,3,8.5s-2.8,10.6-8.3,18.9c-6.1,9.1-9.3,14.8-9.3,17.3s1.3,4.1,4.1,4.1c5,0,13.2-8,24.5-23.9l3-4.1,1.7-2c.4-.6.7-.9,1.1-.9s.4,0,.4.4h-.4Z"/>
  <path class="st0" d="M897.5,617.8c0,.2-.6.9-1.7,2.4l-4.1,5.2c-13.2,16.1-24.3,24.3-33.8,24.3s-8.2-1.7-11.1-4.8-4.5-7.2-4.5-12.1c0-11.3,8-21.3,23.7-30,8.3-4.6,15.2-6.9,20.4-6.9s4.3.7,5.8,2c1.7,1.3,2.4,3,2.4,5,0,4.6-3,8.3-8.9,11.7-5.9,3.3-16,6.1-29.9,8.9-4.3,6.5-6.5,11.9-6.5,16.3s3,8.2,8.9,8.2c10,0,22.3-9.8,36.7-29.3.7-.9,1.3-1.5,1.9-1.5s.4.2.4.6h.2ZM889.6,600.1c0-2-1.1-3-3.3-3-3.3,0-7.8,2.4-13.2,7s-10.8,10.8-16.1,18c9.1-2.4,16.9-5.6,23.2-9.8,6.3-4.3,9.5-8.3,9.5-12.1h0v-.2Z"/>
  <path class="st0" d="M973.4,617.8c0,1.3-4.6,7.4-13.7,18.4-7.6,8.9-13.4,13.5-17.8,13.5s-5.2-1.1-7.2-3.3-3-5-3-8.2.6-5.6,1.7-8,4.3-7.2,9.1-14.5c5.2-7.6,7.6-12.4,7.6-14.5s-1.3-3.9-4.1-3.9c-9.3,0-23.4,17.1-42.7,51.4-3.2-.2-5-.4-5.6-.4-2.2,0-4.3,0-6.3.4l14.8-23.4c8.3-13.4,12.6-21.7,12.6-25s-.7-2.8-2.4-2.8c-3.2,0-9.6,6.9-19.1,20.4-.6.7-.9,1.3-1.3,1.3s-.6-.2-.6-.6.2-.6.4-.7l1.9-2.4c9.6-13,16.1-19.5,19.5-19.5s4.1.9,5.6,3,2.2,4.3,2.2,7c0,4.1-2.4,9.6-7,16.9,7.4-10.4,13.2-17.4,17.3-21.1s7.8-5.8,11.1-5.8,5.2,1.1,7,3.3c1.9,2.2,2.8,5,2.8,8.3s-3,10.8-8.7,19.5c-5.9,8.9-8.9,14.7-8.9,17.1s1.3,3.9,3.9,3.9c5.6,0,15.4-10,29.1-30,.4-.6.6-.9.9-.9s.6.2.6.6h.4Z"/>
</svg>