<?xml version="1.0" encoding="UTF-8"?>
<svg id="_레이어_1" data-name="레이어_1" xmlns="http://www.w3.org/2000/svg" version="1.1" viewBox="0 0 355.3 77.03">
  <!-- Generator: Adobe Illustrator 29.2.1, SVG Export Plug-In . SVG Version: 2.1.0 Build 116)  -->
  <defs>
    <style>
      .st0 {
        fill: #231815;
        stroke: #231815;
        stroke-miterlimit: 10;
      }
    </style>
  </defs>
  <path class="st0" d="M83.82,3.7c0,1.38-1.39,3.38-4.17,5.98-2.78,2.61-6.17,5.1-10.17,7.49-.52,1.64-1.28,4.62-2.29,8.94-1.61,6.77-3.1,11.57-4.45,14.4-1.35,2.84-3.58,5.72-6.69,8.66-8.98,8.49-19.04,12.74-30.19,12.74-3.2,0-6.02-.53-8.46-1.6-1.35,2.65-2.03,4.96-2.03,6.92,0,2.48.83,4.76,2.48,6.83.17.17.26.37.26.61s-.14.35-.43.35c-.67,0-1.38-.89-2.15-2.68-.77-1.79-1.15-3.46-1.15-5.02,0-2.25.73-4.73,2.2-7.44-6.02-3.11-9.03-8.45-9.03-16.02,0-4.86,1.44-9.7,4.32-14.51,2.88-4.81,6.92-9.14,12.14-13,6.65-4.89,13.23-7.34,19.74-7.34,3.54,0,6.35.99,8.44,2.98,2.09,1.99,3.13,4.68,3.13,8.08,0,1.81-.26,3.7-.78,5.66,4.23-2.82,7.97-5.21,11.23-7.17,2.07-4.52,4.68-8.41,7.82-11.66,3.14-3.25,5.87-4.88,8.21-4.88,1.35,0,2.03.56,2.03,1.68ZM54.54,19.89c0-3.02-.96-5.46-2.87-7.3-1.92-1.84-4.44-2.76-7.58-2.76-7.75,0-15.24,4.03-22.48,12.09-7.24,8.06-10.86,16.41-10.86,25.05,0,5.67,2.09,9.7,6.26,12.09,1.96-3.22,4.76-6.75,8.42-10.58-1.9-1.64-2.85-3.6-2.85-5.87,0-1.73.55-3.2,1.64-4.43,1.09-1.22,2.42-1.84,3.97-1.84,1.93,0,2.89.89,2.89,2.68,0,.92-.36,1.72-1.08,2.4-.72.68-1.57,1.01-2.55,1.01-1.41,0-2.12-.68-2.12-2.03,0-.43.14-.89.43-1.38.11-.37.17-.59.17-.65,0-.17-.09-.26-.26-.26-.49,0-.99.52-1.51,1.55-.52,1.04-.78,2.06-.78,3.07,0,1.9.88,3.6,2.63,5.1,5.79-6.1,14.93-13.23,27.42-21.38.72-2.53,1.08-4.72,1.08-6.56ZM65.25,19.72c-3.37,2.13-7.05,4.55-11.06,7.26-1.9,6.1-5.23,11.46-10,16.07-4.77,4.61-9.34,6.91-13.71,6.91-1.32,0-2.78-.35-4.36-1.04-3.25,3.37-6.02,6.91-8.29,10.62,2.36,1.06,5.04,1.6,8.03,1.6,5.41,0,10.65-1.53,15.72-4.6,5.07-3.07,9.41-7.32,13.04-12.76,1.7-2.53,3.04-4.89,4.02-7.06.98-2.17,2.56-6.27,4.75-12.29.52-1.5,1.14-3.07,1.86-4.71ZM53.03,27.67l-2.85,1.94c-10.85,7.49-18.68,13.72-23.49,18.7,1.21.63,2.5.95,3.89.95,4.03,0,8.25-2.12,12.65-6.35s7.67-9.31,9.8-15.24ZM83,3.78c0-.69-.4-1.04-1.21-1.04-1.93,0-4.08,1.33-6.46,3.99-2.38,2.66-4.21,5.78-5.51,9.35,3.8-2.33,6.95-4.66,9.44-7,2.49-2.33,3.74-4.1,3.74-5.31Z"/>
  <path class="st0" d="M88.25,46.65c0,.09-.26.46-.78,1.12l-1.86,2.33c-5.96,7.36-11.08,11.04-15.34,11.04-2.02,0-3.71-.73-5.08-2.18-1.37-1.45-2.05-3.27-2.05-5.46,0-5.18,3.61-9.74,10.84-13.69,3.8-2.07,6.89-3.11,9.28-3.11,1.04,0,1.92.31,2.66.93.73.62,1.1,1.38,1.1,2.27,0,2.07-1.35,3.84-4.06,5.29-2.71,1.45-7.23,2.81-13.56,4.08-1.96,2.97-2.94,5.44-2.94,7.43,0,2.48,1.34,3.71,4.02,3.71,4.55,0,10.13-4.44,16.73-13.32.35-.46.63-.69.86-.69.11.03.17.12.17.26ZM84.6,38.64c0-.92-.5-1.38-1.51-1.38-1.53,0-3.53,1.06-6.02,3.17-2.49,2.12-4.93,4.86-7.32,8.23,4.15-1.06,7.66-2.57,10.54-4.51,2.88-1.94,4.32-3.78,4.32-5.51Z"/>
  <path class="st0" d="M109.67,46.6c0,.38-2.03,2.8-6.09,7.27-4.44,4.84-8.21,7.27-11.32,7.27-2.02,0-3.75-.77-5.19-2.31-1.44-1.54-2.16-3.38-2.16-5.51,0-2.42.98-4.92,2.94-7.51,1.96-2.59,4.59-4.82,7.9-6.69,2.79-1.61,5.07-2.42,6.82-2.42,2.13,0,3.2,1.27,3.2,3.8,0,1.99-.67,3.97-2.01,5.96-1.34,1.99-2.67,2.98-3.99,2.98s-1.94-.65-1.94-1.94c0-1.53,1.32-2.94,3.97-4.23,2.04-1.01,3.07-2.33,3.07-3.97,0-1.3-.71-1.94-2.12-1.94-2.39,0-5.33,2.38-8.81,7.13-3.48,4.75-5.23,8.74-5.23,11.96,0,2.71,1.27,4.06,3.8,4.06,3.98,0,9.37-4.48,16.17-13.45.37-.46.65-.69.82-.69.11.03.17.12.17.26Z"/>
  <path class="st0" d="M134.28,46.6c0,.23-.87,1.29-2.6,3.16-2.19,2.43-4.25,3.64-6.19,3.64-2.19,0-3.29-1.27-3.29-3.8,0-.81.17-1.83.52-3.07-1.81,1.58-3.29,3.15-4.43,4.71-1.14,1.55-3.1,4.72-5.89,9.5-1.53-.12-2.42-.17-2.68-.17-.12,0-.99.06-2.63.17l7.08-11.49c3.54-5.76,5.31-9.33,5.31-10.71,0-.81-.33-1.21-1-1.21-1.62,0-4.54,3.1-8.78,9.31-.26.4-.49.61-.69.61-.12-.03-.17-.11-.17-.26.03-.14.09-.26.17-.35l.78-1.08c4.44-5.91,7.45-8.87,9.04-8.87,2.31,0,3.46,1.48,3.46,4.45,0,2.22-1.18,5.15-3.54,8.81,1.5-1.73,2.92-3.14,4.28-4.23,1.09-2.56,2.45-4.71,4.08-6.43,1.63-1.73,3.09-2.59,4.38-2.59.89,0,1.34.39,1.34,1.17,0,1.38-2,3.35-6,5.92-.63.4-1.58.99-2.85,1.77l-.52.43c-.4,1.32-.6,2.42-.6,3.28,0,2.42.91,3.63,2.73,3.63,2.25,0,4.7-1.86,7.36-5.59.58-.63.94-.95,1.08-.95.17,0,.26.09.26.26Z"/>
  <path class="st0" d="M156.01,46.65c0,.09-.26.46-.78,1.12l-1.86,2.33c-5.96,7.36-11.08,11.04-15.34,11.04-2.02,0-3.71-.73-5.08-2.18-1.37-1.45-2.05-3.27-2.05-5.46,0-5.18,3.61-9.74,10.84-13.69,3.8-2.07,6.89-3.11,9.28-3.11,1.04,0,1.92.31,2.66.93.73.62,1.1,1.38,1.1,2.27,0,2.07-1.35,3.84-4.06,5.29-2.71,1.45-7.23,2.81-13.56,4.08-1.96,2.97-2.94,5.44-2.94,7.43,0,2.48,1.34,3.71,4.02,3.71,4.55,0,10.13-4.44,16.73-13.32.35-.46.63-.69.86-.69.11.03.17.12.17.26ZM152.36,38.64c0-.92-.5-1.38-1.51-1.38-1.53,0-3.53,1.06-6.02,3.17-2.49,2.12-4.93,4.86-7.32,8.23,4.15-1.06,7.66-2.57,10.54-4.51,2.88-1.94,4.32-3.78,4.32-5.51Z"/>
  <path class="st0" d="M171.92,36.69l-.35.65h-5.66l-9.63,16.45c-1.18,1.99-1.77,3.57-1.77,4.75,0,1.3.68,1.94,2.03,1.94,2.62,0,7.05-4.57,13.28-13.71.2-.29.37-.43.52-.43.17,0,.26.09.26.26-.03.09-.17.32-.43.69l-1.86,2.55c-5.42,7.53-9.5,11.29-12.24,11.29-1.36,0-2.49-.49-3.39-1.47-.91-.98-1.36-2.2-1.36-3.67,0-1.73.76-3.89,2.29-6.48l7.26-12.18h-4.4l.43-.65h4.32l5.05-8.38c.86.23,1.68.35,2.46.35s1.64-.11,2.5-.35l-4.97,8.38h5.66Z"/>
  <path class="st0" d="M209.14,16.01c-.23.4-.59.99-1.08,1.77-.75,1.21-1.87,3.01-3.37,5.4-.72,1.24-1.83,3.09-3.33,5.57l-7.43,12.01c-2.48,4-4.58,7.63-6.31,10.88-1.93,3.63-3.48,6.43-4.66,8.42l-.56.86c-.78-.17-1.54-.26-2.29-.26-.63,0-1.57.09-2.81.26.66-1.12,1.4-2.39,2.2-3.8l5.01-8.72c.75-1.3,1.87-3.25,3.37-5.87l15.85-26.52c1.18.23,2.06.35,2.63.35s1.5-.11,2.76-.35ZM212.88,46.6c-.03.09-.17.32-.43.69l-1.86,2.55c-5.45,7.53-9.56,11.29-12.32,11.29-1.24,0-2.33-.42-3.29-1.25-.95-.84-1.43-1.79-1.43-2.85,0-.92.8-2.98,2.42-6.18l.04-.17c.55-1.07.82-1.86.82-2.38,0-.63-.48-1.23-1.43-1.77-1.1.46-2,.69-2.72.69-1.01,0-1.51-.29-1.51-.87,0-.49.47-.73,1.43-.73s1.77.14,2.55.43c1.44-.63,3.74-2.77,6.91-6.42,1.7-1.95,3.44-2.93,5.23-2.93,2.19,0,3.28,1.04,3.28,3.11,0,1.38-.55,2.76-1.66,4.12-1.11,1.37-2.21,2.05-3.3,2.05-1.24,0-1.86-.56-1.86-1.68,0-1.04.93-2.14,2.81-3.33.78-.49,1.17-1.18,1.17-2.07,0-.69-.45-1.04-1.34-1.04-1.24,0-2.79,1.09-4.66,3.27-2.39,2.73-4.33,4.42-5.83,5.08,2.99,1.38,4.49,2.98,4.49,4.8,0,1.01-.71,2.96-2.12,5.84-.6,1.21-.91,2.05-.91,2.51,0,.75.48,1.13,1.43,1.13,2.7,0,7.13-4.57,13.26-13.71.2-.29.39-.43.56-.43.19,0,.28.09.28.26Z"/>
  <path class="st0" d="M227.61,46.6c-.03.09-.17.32-.43.69l-1.86,2.55c-5.42,7.53-9.56,11.29-12.41,11.29-1.35,0-2.49-.48-3.39-1.45s-1.36-2.17-1.36-3.61c0-1.67.99-4.2,2.98-7.6l6.74-11.44c.89.2,1.6.3,2.12.3.78,0,1.87-.1,3.28-.3l-9.8,16.11c-1.41,2.33-2.12,4.13-2.12,5.4s.68,1.94,2.03,1.94c2.57,0,7.08-4.57,13.54-13.71.14-.29.29-.43.43-.43.17,0,.26.09.26.26ZM226.98,28.75c0,1.01-.42,1.95-1.27,2.83-.85.88-1.78,1.32-2.79,1.32-1.3,0-1.94-.65-1.94-1.94,0-.95.45-1.86,1.34-2.74.89-.88,1.83-1.32,2.81-1.32,1.24,0,1.86.62,1.86,1.86Z"/>
  <path class="st0" d="M243.61,36.69l-.35.65h-5.66l-9.63,16.45c-1.18,1.99-1.77,3.57-1.77,4.75,0,1.3.68,1.94,2.03,1.94,2.62,0,7.05-4.57,13.28-13.71.2-.29.37-.43.52-.43.17,0,.26.09.26.26-.03.09-.17.32-.43.69l-1.86,2.55c-5.42,7.53-9.5,11.29-12.23,11.29-1.35,0-2.49-.49-3.39-1.47-.91-.98-1.36-2.2-1.36-3.67,0-1.73.76-3.89,2.29-6.48l7.26-12.18h-4.4l.43-.65h4.32l5.05-8.38c.86.23,1.68.35,2.46.35s1.64-.11,2.5-.35l-4.97,8.38h5.66Z"/>
  <path class="st0" d="M263.71,46.6c0,.38-2.03,2.8-6.09,7.27-4.44,4.84-8.21,7.27-11.32,7.27-2.02,0-3.75-.77-5.19-2.31-1.44-1.54-2.16-3.38-2.16-5.51,0-2.42.98-4.92,2.94-7.51,1.96-2.59,4.59-4.82,7.9-6.69,2.79-1.61,5.07-2.42,6.82-2.42,2.13,0,3.2,1.27,3.2,3.8,0,1.99-.67,3.97-2.01,5.96-1.34,1.99-2.67,2.98-3.99,2.98s-1.94-.65-1.94-1.94c0-1.53,1.32-2.94,3.97-4.23,2.04-1.01,3.07-2.33,3.07-3.97,0-1.3-.71-1.94-2.12-1.94-2.39,0-5.33,2.38-8.81,7.13-3.48,4.75-5.23,8.74-5.23,11.96,0,2.71,1.27,4.06,3.8,4.06,3.98,0,9.37-4.48,16.17-13.45.37-.46.65-.69.82-.69.12.03.17.12.17.26Z"/>
  <path class="st0" d="M291.31,46.52c0,.23-.14.49-.43.78l-1.86,2.55c-5.42,7.53-9.45,11.29-12.1,11.29-1.38,0-2.52-.5-3.39-1.49-.88-.99-1.32-2.24-1.32-3.74,0-2.01,1.09-4.65,3.28-7.9,3.43-5.04,5.14-8.03,5.14-8.98,0-1.12-.59-1.68-1.77-1.68-1.73,0-4.09,1.7-7.08,5.1-2.88,3.25-6.84,9.41-11.88,18.48-.86-.17-1.6-.26-2.2-.26s-1.48.09-2.55.26l6.35-11.49c.86-1.64,2.19-4.06,3.97-7.26.95-1.55,3.87-6.51,8.77-14.86l6.56-11.14c.86.17,1.6.26,2.2.26,1.15,0,2.25-.14,3.28-.43-3,4.81-7.46,12.01-13.39,21.59-.17.29-2.4,4-6.69,11.14,5.41-8.03,9.69-12.05,12.83-12.05,1.24,0,2.3.53,3.17,1.6.88,1.07,1.32,2.36,1.32,3.89,0,1.99-1.27,4.85-3.8,8.59-2.82,4.17-4.23,6.8-4.23,7.86,0,1.24.62,1.86,1.86,1.86,2.25,0,5.97-3.63,11.16-10.9l1.34-1.86.78-.95c.14-.29.32-.43.52-.43.12,0,.17.06.17.17Z"/>
  <path class="st0" d="M313.16,46.65c0,.09-.26.46-.78,1.12l-1.86,2.33c-5.96,7.36-11.08,11.04-15.34,11.04-2.02,0-3.71-.73-5.08-2.18-1.37-1.45-2.05-3.27-2.05-5.46,0-5.18,3.61-9.74,10.84-13.69,3.8-2.07,6.89-3.11,9.28-3.11,1.04,0,1.92.31,2.66.93.73.62,1.1,1.38,1.1,2.27,0,2.07-1.35,3.84-4.06,5.29-2.71,1.45-7.23,2.81-13.56,4.08-1.96,2.97-2.94,5.44-2.94,7.43,0,2.48,1.34,3.71,4.02,3.71,4.55,0,10.13-4.44,16.73-13.32.35-.46.63-.69.86-.69.12.03.17.12.17.26ZM309.51,38.64c0-.92-.5-1.38-1.51-1.38-1.53,0-3.53,1.06-6.02,3.17-2.49,2.12-4.93,4.86-7.32,8.23,4.15-1.06,7.66-2.57,10.54-4.51,2.88-1.94,4.32-3.78,4.32-5.51Z"/>
  <path class="st0" d="M347.75,46.6c0,.61-2.09,3.4-6.27,8.39-3.43,4.09-6.12,6.14-8.08,6.14-1.3,0-2.38-.5-3.26-1.51-.88-1.01-1.32-2.25-1.32-3.71,0-1.3.27-2.5.8-3.61.53-1.11,1.92-3.3,4.17-6.59,2.33-3.45,3.5-5.66,3.5-6.61,0-1.18-.62-1.77-1.86-1.77-4.2,0-10.68,7.8-19.43,23.41-1.41-.12-2.26-.17-2.55-.17-1.01,0-1.96.06-2.85.17l6.74-10.67c3.83-6.1,5.74-9.92,5.74-11.44,0-.86-.36-1.3-1.08-1.3-1.47,0-4.37,3.1-8.7,9.31-.26.38-.46.58-.6.61-.14,0-.23-.09-.26-.26.03-.14.09-.26.17-.35l.82-1.08c4.41-5.91,7.38-8.87,8.91-8.87.98,0,1.82.45,2.51,1.34.69.89,1.04,1.96,1.04,3.2,0,1.84-1.08,4.4-3.24,7.69,3.4-4.69,6.01-7.9,7.84-9.63,1.83-1.73,3.52-2.59,5.07-2.59,1.27,0,2.33.52,3.2,1.55.86,1.04,1.3,2.32,1.3,3.84,0,1.93-1.32,4.88-3.97,8.85-2.71,4.06-4.06,6.65-4.06,7.77,0,1.18.59,1.77,1.77,1.77,2.57,0,6.99-4.57,13.28-13.71.14-.29.29-.43.43-.43.17,0,.26.09.26.26Z"/>
</svg>