<svg xmlns="http://www.w3.org/2000/svg" version="1.1" xmlns:xlink="http://www.w3.org/1999/xlink" xmlns:svgjs="http://svgjs.dev/svgjs" width="350.81" height="350.81"><svg id="SvgjsSvg1012" data-name="레이어_1" xmlns="http://www.w3.org/2000/svg" version="1.1" viewBox="0 0 350.81 350.81">
  <!-- Generator: Adobe Illustrator 29.3.1, SVG Export Plug-In . SVG Version: 2.1.0 Build 151)  -->
  <defs>
    <style>
      .st0 {
        fill: #512e03;
      }
    </style>
  </defs>
  <path class="st0" d="M161.09,310.28c-19.63-5.57-43.76-2.78-53.18-1.86-6.1.66-10.61,1.72-13.26,2.65-1.86.66-3.85-.27-4.77-1.99l-2.65-5.17c-1.06-2.12,0-4.77,2.12-5.57,9.81-3.45,35.94-10.74,67.37-3.45.53,5.44,1.86,10.74,4.38,15.38Z"></path>
  <path class="st0" d="M163.34,199.28l-2.65-13c-1.19-5.7-5.04-10.34-10.34-12.6l-20.82-8.62c-7.03-2.92-14.98,0-18.57,6.76l-8.88,17.11c-3.71,7.03-1.06,15.65,5.83,19.49l20.16,11.27c2.52,1.46,5.3,2.12,8.09,2.25,3.18.13,6.5-.8,9.28-2.39l12.86-7.56c21.35,8.22,33.55,18.7,38.59,23.6,6.23-3.45,13.26-5.3,13.53-5.3h0c-.8-.93-14.32-18.43-47.08-31.03ZM138.28,207.77c-1.06.66-2.52.66-3.71,0l-20.16-11.27c-.4-.27-.66-.8-.4-1.33l2.92-5.7,28.91,13.66-7.56,4.64ZM120.24,183.37l2.78-5.17c.27-.4.8-.66,1.19-.4l20.82,8.62c1.06.4,1.99,1.46,2.25,2.65l1.46,6.63-28.51-12.33Z"></path>
  <path class="st0" d="M325.92,213.07c-18.96,24.4-55.43,35.14-80.89,37-19.89,1.46-35.54,5.17-46.28,11.14-19.1,9.42-22.01,32.49-6.5,42.3,8.62,5.57,20.69,6.23,28.64,1.59,7.16-4.24,11.14-9.28,11.93-14.85,1.46-10.61-8.22-21.22-8.22-21.22l-3.71-4.64c4.38-2.92,13.66-4.64,13.66-4.64,7.96,8.49,14.98,23.34,10.74,37.4-.06.24-2.06,6.56-9.79,14.14-6.2,6.08-14.61,8.93-14.61,8.93-24.93,8.22-55.96-9.95-51.98-38.99,2.12-18.03,16.84-40.31,75.06-44.56,11.27-.8,24-3.45,35.94-7.96h0c14.06-5.3,26.92-13.26,35.14-23.74,7.29-9.55,10.08-20.16,7.96-31.69-8.35-43.89-46.02-38.99-86.06-20.02-.66.27-1.33.66-1.86.93h0c-22.28,9.42-43.76,7.96-55.17,6.23-1.86-.27-1.86-2.78-.13-3.32.8-.13,1.59-.4,2.39-.53h0c17.64-4.51,29.04-13.13,29.44-13.39h0c8.22-4.91,15.25-12.07,17.77-22.28,11.14-60.6-53.97-87.79-106.09-76.25-.27,0-.4.13-.66.13s-.4.13-.53.13c-25.99,6.1-48.53,21.88-56.36,48.14-3.32,12.6-1.06,24.53,6.63,34.74,0,.13,8.49,11.8,18.83,18.3,1.33.8,2.65,1.46,3.98,1.99,1.59.66,1.19,3.05-.53,3.18-7.69.53-14.45.27-23.21-1.19-1.33-.27-2.78-.66-4.24-.8h0c-24.13-4.24-49.46,22.41-36.87,46.68,10.48,22.28,43.76,36.73,75.32,35.54,2.92,0,4.64,3.58,2.78,5.83l-3.98,5.04c-.4.53-7.43,10.61-8.88,29.44,10.61-2.65,38.32-7.69,62.99-.27-.8,3.71-1.72,8.62-1.99,13.66-25.33-7.03-52.78-3.32-68.96,4.38-2.65,1.33-5.7-.4-5.7-3.32l-.13-4.51c-.53-16.84,3.05-29.31,6.37-37.26-31.69-3.58-59.01-19.89-70.02-42.43-7.56-15.52-6.1-32.36,4.38-46.15,12.33-16.18,26.92-20.55,38.85-20.55-9.81-13.13-13.13-29.57-8.88-45.62,9.55-36.87,51.98-61.27,90.31-61.13,33.95-.4,65.11,8.88,85.53,34.08,16.97,21.35,22.41,52.91,8.09,75.98,47.74-21.62,90.17-18.3,100.12,32.49,2.79,14.72-.93,29.44-10.61,41.9Z"></path>
  <path class="st0" d="M245.29,297.15c-.27,0-24.4,23.07-24.4,23.07"></path>
</svg><style>@media (prefers-color-scheme: light) { :root { filter: none; } }
@media (prefers-color-scheme: dark) { :root { filter: none; } }
</style></svg>